<?xml version="1.0" encoding="utf-8"?>
<!-- Generator: Adobe Illustrator 21.1.0, SVG Export Plug-In . SVG Version: 6.00 Build 0)  -->
<svg version="1.0" id="레이어_1" xmlns="http://www.w3.org/2000/svg" xmlns:xlink="http://www.w3.org/1999/xlink" x="0px"
	 y="0px" viewBox="0 0 70.9 65.2" style="enable-background:new 0 0 70.9 65.2;" xml:space="preserve">
<g>
	<path d="M35.4,61.9c-16.1,0-29.3-13.1-29.3-29.3S19.3,3.3,35.4,3.3c16.1,0,29.3,13.1,29.3,29.3S51.6,61.9,35.4,61.9 M35.4,6.3
		C21,6.3,9.2,18.1,9.2,32.6c0,14.5,11.8,26.3,26.3,26.3s26.3-11.8,26.3-26.3C61.7,18.1,49.9,6.3,35.4,6.3"/>
	<path d="M43.9,18.4v5.9h-8.3c-1.4,0-2.4,0.2-2.9,0.5c-0.8,0.4-1.2,1.1-1.2,2c0,1,0.4,1.7,1.3,2.3c0.6,0.4,1.5,0.6,2.8,0.6h8.3v5.9
		h-8.3c-1.4,0-2.4,0.1-2.8,0.4c-0.9,0.5-1.3,1.2-1.3,2.2c0,0.9,0.4,1.6,1.1,2.2c0.3,0.2,0.6,0.3,1.1,0.4c0.5,0.1,1.1,0.1,1.9,0.1
		h8.3v5.9H27.2v-5.9h2.1c-0.7-0.7-1.2-1.3-1.5-1.9c-0.6-1-0.8-2.2-0.8-3.5c0-1.6,0.4-3,1.3-4.1c0.4-0.6,1-1.1,1.8-1.6
		c-0.7-0.5-1.3-1-1.8-1.5c-0.9-1.2-1.4-2.5-1.4-4.1c0-1.3,0.3-2.4,0.9-3.3c0.7-1,1.6-1.7,2.7-2.1c0.7-0.2,1.5-0.3,2.6-0.3H43.9z"/>
</g>
</svg>
