<?xml version="1.0" encoding="utf-8"?>
<!-- Generator: Adobe Illustrator 21.1.0, SVG Export Plug-In . SVG Version: 6.00 Build 0)  -->
<svg version="1.0" id="레이어_1" xmlns="http://www.w3.org/2000/svg" xmlns:xlink="http://www.w3.org/1999/xlink" x="0px"
	 y="0px" viewBox="0 0 70.9 65.2" style="enable-background:new 0 0 70.9 65.2;" xml:space="preserve">
<g>
	<path d="M64.9,59.9H6.6c-0.8,0-1.5-0.7-1.5-1.5s0.7-1.5,1.5-1.5h58.2c0.8,0,1.5,0.7,1.5,1.5S65.7,59.9,64.9,59.9"/>
	<path d="M64.9,34.1H6.6c-0.8,0-1.5-0.7-1.5-1.5s0.7-1.5,1.5-1.5h58.2c0.8,0,1.5,0.7,1.5,1.5S65.7,34.1,64.9,34.1"/>
	<path d="M64.9,8.3H6.6c-0.8,0-1.5-0.7-1.5-1.5c0-0.8,0.7-1.5,1.5-1.5h58.2c0.8,0,1.5,0.7,1.5,1.5C66.4,7.6,65.7,8.3,64.9,8.3"/>
</g>
</svg>
