<svg id="레이어_1" data-name="레이어 1" xmlns="http://www.w3.org/2000/svg" viewBox="0 0 538.58 538.58"><defs><style>.cls-1{fill:#231815;}.cls-2{fill:#fff;}</style></defs><title>insta</title><path class="cls-1" d="M283.59,40.17a244.36,244.36,0,0,1,95.08,469.39A244.36,244.36,0,0,1,188.5,59.36a242.76,242.76,0,0,1,95.08-19.19m0-25c-148.73,0-269.29,120.57-269.29,269.29S134.86,553.76,283.59,553.76,552.88,433.19,552.88,284.47,432.31,15.17,283.59,15.17" transform="translate(-14.29 -15.17)"/><path class="cls-1" d="M411.82,133.47H155.35a31.18,31.18,0,0,0-31.18,31.18V421.12a31.18,31.18,0,0,0,31.18,31.18H411.82A31.18,31.18,0,0,0,443,421.12V164.65a31.18,31.18,0,0,0-31.18-31.18M343.88,307.12a60.29,60.29,0,1,1-60.29-60.29,60.36,60.36,0,0,1,60.29,60.29m67.94,120.18H155.35a6.19,6.19,0,0,1-6.18-6.18v-180h80.38a85.29,85.29,0,1,0,108.07,0H418v180a6.19,6.19,0,0,1-6.18,6.18" transform="translate(-14.29 -15.17)"/><path class="cls-2" d="M345.79,194a30.09,30.09,0,1,1,30.09,30.09A30.09,30.09,0,0,1,345.79,194" transform="translate(-14.29 -15.17)"/></svg>