<?xml version="1.0" encoding="utf-8"?>
<!-- Generator: Adobe Illustrator 21.1.0, SVG Export Plug-In . SVG Version: 6.00 Build 0)  -->
<svg version="1.0" id="레이어_1" xmlns="http://www.w3.org/2000/svg" xmlns:xlink="http://www.w3.org/1999/xlink" x="0px"
	 y="0px" viewBox="0 0 70.9 65.2" style="enable-background:new 0 0 70.9 65.2;" xml:space="preserve">
<g>
	<path d="M58,62.5H13.1c-3.1,0-5.6-2.9-5.6-6.4V20c0-3.5,2.5-6.4,5.6-6.4h5.6c3.1-7.4,9.6-12.1,16.9-12.1c7.3,0,13.8,4.7,16.9,12.1
		H58c3.1,0,5.6,2.9,5.6,6.4v36.1C63.6,59.6,61.1,62.5,58,62.5 M13.1,16.6c-1.4,0-2.6,1.6-2.6,3.4v36.1c0,1.8,1.2,3.4,2.6,3.4H58
		c1.4,0,2.6-1.6,2.6-3.4V20c0-1.8-1.2-3.4-2.6-3.4h-6.6c-0.6,0-1.2-0.4-1.4-1C47.6,8.8,41.9,4.5,35.6,4.5c-6.3,0-12,4.4-14.4,11.2
		c-0.2,0.6-0.8,1-1.4,1H13.1z M43.1,16.6h-15c-0.5,0-1-0.2-1.2-0.6c-0.3-0.4-0.3-0.9-0.2-1.4c1.5-3.9,4.8-6.3,8.9-6.3
		c4.3,0,7.5,2.3,8.9,6.3c0.2,0.5,0.1,1-0.2,1.4C44,16.4,43.6,16.6,43.1,16.6 M30.6,13.6h10c-1.1-1.5-2.9-2.3-5-2.3
		C33.5,11.3,31.8,12.1,30.6,13.6"/>
</g>
</svg>
