<svg id="레이어_1" data-name="레이어 1" xmlns="http://www.w3.org/2000/svg" viewBox="0 0 538.58 538.58"><defs><style>.cls-1{fill:#231815;}.cls-2{fill:#fff;}</style></defs><title>icon_youtube</title><path class="cls-1" d="M283.48,39.33a244.36,244.36,0,0,1,95.08,469.39A244.36,244.36,0,0,1,188.4,58.52a242.73,242.73,0,0,1,95.08-19.19m0-25C134.75,14.33,14.19,134.9,14.19,283.62S134.75,552.91,283.48,552.91,552.77,432.35,552.77,283.62,432.2,14.33,283.48,14.33" transform="translate(-14.19 -14.33)"/><path class="cls-1" d="M432.7,428.7H136.42a34,34,0,0,1-34-34V180a34,34,0,0,1,34-34H432.7a34,34,0,0,1,34,34V394.68a34,34,0,0,1-34,34" transform="translate(-14.19 -14.33)"/><path class="cls-2" d="M239.53,292V234.62a4.79,4.79,0,0,1,7.11-4.07l53.58,28.84,50.52,27.19a6.32,6.32,0,0,1,0,10.94L300.21,324.7l-53.58,28.84a4.79,4.79,0,0,1-7.11-4.07Z" transform="translate(-14.19 -14.33)"/></svg>