<?xml version="1.0" encoding="utf-8"?>
<!-- Generator: Adobe Illustrator 21.1.0, SVG Export Plug-In . SVG Version: 6.00 Build 0)  -->
<svg version="1.0" id="레이어_1" xmlns="http://www.w3.org/2000/svg" xmlns:xlink="http://www.w3.org/1999/xlink" x="0px"
	 y="0px" viewBox="0 0 70.9 65.2" style="enable-background:new 0 0 70.9 65.2;" xml:space="preserve">
<g>
	<path d="M64,56.9L51.6,44.4c3.6-4.4,5.7-9.9,5.7-16C57.3,14.6,46,3.3,32.1,3.3S6.9,14.6,6.9,28.5s11.3,25.2,25.2,25.2
		c6.1,0,11.6-2.1,16-5.7l12.5,12.5c0.5,0.5,1.1,0.7,1.8,0.7s1.3-0.2,1.8-0.7C65,59.5,65,57.9,64,56.9 M32.1,47.7
		c-10.6,0-19.2-8.6-19.2-19.2S21.5,9.3,32.1,9.3s19.2,8.6,19.2,19.2S42.7,47.7,32.1,47.7"/>
</g>
</svg>
