<?xml version="1.0" encoding="utf-8"?>
<!-- Generator: Adobe Illustrator 25.0.1, SVG Export Plug-In . SVG Version: 6.00 Build 0)  -->
<svg version="1.1" id="Layer_1" xmlns="http://www.w3.org/2000/svg" xmlns:xlink="http://www.w3.org/1999/xlink" x="0px" y="0px"
	 viewBox="0 0 731.7 312.3" style="enable-background:new 0 0 731.7 312.3;" xml:space="preserve">
<style type="text/css">
	.st0{fill:#C57F6B;}
	.st1{fill:#C56432;}
	.st2{fill:#35A459;}
	.st3{fill:#B8DAB9;}
	.st4{fill:#458759;}
	.st5{fill:#FFFFFF;}
	.st6{fill:#3D88DE;}
	.st7{fill:#FF9BA0;}
	.st8{fill:#BB957D;}
	.st9{fill:#3D240A;}
	.st10{fill:#FEDC43;}
	.st11{fill:#FEA479;}
	.st12{fill:#3D8858;}
	.st13{fill:#E9C7C9;}
	.st14{fill:#8A5B36;}
	.st15{fill:#DCB79B;}
	.st16{fill:#B26436;}
	.st17{fill:#4260AB;}
	.st18{fill:#427EE2;}
	.st19{fill:#704425;}
	.st20{fill:#DB926E;}
</style>
<g>
	<g>
		<g>
			<g>
				<g>
					<path class="st0" d="M54.6,256.7c-0.2,0.1-0.1-0.4,0.1-0.3c0.2,0.1,0.2,0.3,0.2,0.5c0.2,14.8-0.4,28.3-0.2,43.1
						c0,0,4.2,2.6,10.4,1.9c6.2-0.7,9.2-3.6,9.2-3.6c-0.1-15,0-29.9,0.3-44.9"/>
				</g>
				<g>
					<g>
						<g>
							<path class="st1" d="M68.5,254.9c0.5,14.1,0.4,28.2,0.1,42.3c0,0.3,2.9,0,2.9-0.8c0.3-14.1,0.4-28.2-0.1-42.3
								C71.4,253.7,68.5,254.1,68.5,254.9L68.5,254.9z"/>
						</g>
					</g>
					<g>
						<g>
							<path class="st1" d="M63.9,258.8c1,10.3,0.3,20.7,0,31c0,1.3,2.9,0.8,2.9-0.3c0.3-10.5,1-21,0-31.4
								C66.7,256.9,63.8,257.6,63.9,258.8L63.9,258.8z"/>
						</g>
					</g>
					<g>
						<g>
							<path class="st1" d="M60.6,259c0.6,12.5-0.5,25,0.2,37.4c0.1,1.1,3,0.5,2.9-0.8c-0.6-12.5,0.5-25-0.2-37.4
								C63.5,257,60.6,257.7,60.6,259L60.6,259z"/>
						</g>
					</g>
					<g>
						<g>
							<path class="st1" d="M56.6,260.3c-0.3,11.8-0.2,23.6,0,35.3c0,1.5,3,1,2.9-0.2c-0.3-11.8-0.3-23.6,0-35.3
								C59.5,258.6,56.6,259.1,56.6,260.3L56.6,260.3z"/>
						</g>
					</g>
				</g>
				<g>
					<path class="st2" d="M57.4,265.2c-4.5,3.3-10.5,3.8-16,3.1c-7.5-0.9-15.1-4.1-19.6-10.2c-4.5-6.1-5.1-15.3,0-20.9
						c-8.2,0.4-15.9-5.9-18.3-13.7c-2.4-7.9,0.1-16.7,5.3-23s12.9-10.3,20.9-12.1c-2-5.6-2.2-11.8-0.5-17.4
						c2.3-7.7,8.1-14.1,15.1-17.9s15.3-5.1,23.3-4.3c2.8,0.3,5.5,0.8,8,2c6.8,3.2,10.5,10.4,13.7,17.2c6.2-0.2,12.4,1.4,17.4,5
						c5,3.6,8.6,9.2,9.3,15.3c1.1,10.8-6.6,20.2-13.7,28.3c7.8,8.7,9.5,22.3,4,32.7c-5.5,10.3-17.7,16.6-29.3,15"/>
				</g>
			</g>
			<g>
				<g>
					<path class="st3" d="M49.8,177.1c0.3,1.8,0.6,3.6,0.8,5.4c0,0.2,0.4,0.2,0.5,0.2c0.3,0,0.7-0.1,1.1-0.2c0.3-0.1,0.7-0.2,1-0.4
						c0.1-0.1,0.4-0.2,0.3-0.4c-0.3-1.8-0.6-3.6-0.8-5.4c0-0.2-0.4-0.2-0.5-0.2c-0.3,0-0.7,0.1-1.1,0.2c-0.3,0.1-0.7,0.2-1,0.4
						C50,176.7,49.7,176.9,49.8,177.1L49.8,177.1z"/>
				</g>
			</g>
			<g>
				<g>
					<path class="st3" d="M77.3,175.3c0,0.8,0.1,1.6,0.1,2.3c0,0.1,0,0.3,0.1,0.4c0,0.1,0.1,0.2,0.3,0.3c0.3,0.2,0.7,0.3,1,0.2
						c0.4,0,0.8-0.2,1.1-0.4c0.1-0.1,0.2-0.2,0.3-0.2c0.1-0.2,0.2-0.3,0.3-0.5c0-0.8-0.1-1.6-0.1-2.3c0-0.1,0-0.3-0.1-0.4
						c0-0.1-0.1-0.2-0.3-0.3c-0.3-0.2-0.7-0.3-1-0.2c-0.4,0-0.8,0.2-1.1,0.4c-0.1,0.1-0.2,0.2-0.3,0.2
						C77.5,174.9,77.4,175.1,77.3,175.3L77.3,175.3z"/>
				</g>
			</g>
			<g>
				<g>
					<path class="st3" d="M55.2,204.3c-0.4,1.1-0.4,2.3-0.2,3.4c0.1,0.3,0.4,0.4,0.6,0.5c0.3,0.1,0.8,0.1,1.1,0
						c0.3-0.1,0.7-0.3,1-0.5c0.2-0.2,0.3-0.4,0.3-0.7c-0.1-0.3-0.1-0.6-0.1-0.9c0,0.1,0,0.2,0,0.2c0-0.8,0.1-1.5,0.3-2.2
						c0.1-0.2-0.1-0.5-0.3-0.6c-0.3-0.2-0.7-0.2-1-0.2c-0.4,0-0.8,0.2-1.1,0.4c-0.1,0.1-0.2,0.1-0.3,0.2
						C55.3,203.9,55.2,204.1,55.2,204.3L55.2,204.3z"/>
				</g>
			</g>
			<g>
				<g>
					<path class="st3" d="M82.9,195.6c-0.1,0.8-0.2,1.6-0.3,2.4c0,0.2,0.5,0.2,0.5,0.2c0.3,0,0.7-0.1,1.1-0.2c0.3-0.1,0.7-0.2,1-0.4
						c0.2-0.1,0.3-0.2,0.4-0.4c0.1-0.8,0.2-1.6,0.3-2.4c0-0.2-0.5-0.2-0.5-0.2c-0.3,0-0.7,0.1-1.1,0.2c-0.3,0.1-0.7,0.2-1,0.4
						C83.1,195.3,82.9,195.4,82.9,195.6L82.9,195.6z"/>
				</g>
			</g>
			<g>
				<g>
					<path class="st3" d="M79.1,228.1c0.2,1.8,0.2,3.5-0.1,5.3c-0.1,0.6,0.9,0.6,1.2,0.5c0.4-0.1,0.8-0.2,1.1-0.4
						c0.2-0.1,0.5-0.3,0.6-0.6c0.4-1.9,0.4-3.8,0.1-5.7c0-0.2-0.4-0.3-0.5-0.4c-0.3-0.1-0.8,0-1.1,0.1
						C80,227.2,79.1,227.5,79.1,228.1L79.1,228.1z"/>
				</g>
			</g>
			<g>
				<g>
					<path class="st3" d="M37.4,243.8c0.4,1.5,0.9,3.1,1.3,4.6c0.2,0.6,1.2,0.6,1.7,0.4c0.3-0.1,0.7-0.2,1-0.5
						c0.2-0.2,0.3-0.4,0.3-0.7c-0.4-1.5-0.9-3.1-1.3-4.6c-0.2-0.6-1.2-0.6-1.7-0.4c-0.3,0.1-0.7,0.2-1,0.5
						C37.4,243.3,37.3,243.6,37.4,243.8L37.4,243.8z"/>
				</g>
			</g>
			<g>
				<g>
					<path class="st3" d="M63,223.2c-0.2,0.9-0.4,1.8-0.7,2.8c-0.1,0.5,0.9,0.4,1.2,0.4c0.4-0.1,0.8-0.2,1.1-0.4
						c0.1-0.1,0.2-0.1,0.3-0.2c0.1-0.1,0.2-0.2,0.3-0.3c0.2-0.9,0.4-1.8,0.7-2.8c0.1-0.5-0.9-0.4-1.2-0.4c-0.4,0.1-0.8,0.2-1.1,0.4
						c-0.1,0.1-0.2,0.1-0.3,0.2C63.2,222.9,63,223,63,223.2L63,223.2z"/>
				</g>
			</g>
		</g>
		<g>
			<g>
				<g>
					<path class="st0" d="M152.5,246.9c0.3,15.7-0.5,31.5-2.5,47.1c0,0,5.5,2.8,10.8,2.8c5.4,0,10.2-4.9,10.2-4.9
						c1.2-15.8,2.5-31.6,3.7-47.4"/>
				</g>
				<g>
					<g>
						<path class="st1" d="M174.6,252.5c-6.5,2.8-12.2,8.5-13.9,15.5c-0.8,3.1-0.7,7.6,1.9,9.9c2.3,2,5.5,1.5,8.3,1.7
							c0.6,0,1.6-0.2,1.9-0.8c0.3-0.6-0.2-0.9-0.8-1c-2.3-0.1-5.3,0.4-7.1-1.4c-2.2-2.3-2-6.3-1.2-9.1c1.6-6,6.4-11,12.1-13.4
							c0.4-0.2,1.1-0.7,0.7-1.3C176.2,252,175.1,252.3,174.6,252.5L174.6,252.5z"/>
					</g>
				</g>
				<g>
					<g>
						<path class="st1" d="M172.9,258.6c-2.1,0.5-4.1,1.5-5.6,3.1c-1.8,1.9-2.9,4.3-3.3,6.8c-0.7,4.3,2.8,8.8,7.3,8.9
							c0.6,0,1.6-0.2,1.9-0.8c0.3-0.6-0.3-1-0.8-1c-3.5-0.1-5.9-4.2-5.4-7.4c0.3-2.1,1.2-4.1,2.6-5.7c1.1-1.2,2.4-1.9,3.9-2.2
							c0.5-0.1,1.4-0.6,1.2-1.2C174.4,258.4,173.4,258.5,172.9,258.6L172.9,258.6z"/>
					</g>
				</g>
				<g>
					<g>
						<path class="st1" d="M173.7,262.4c-2.9-0.1-5,2.4-5.6,5c-0.3,1.3-0.5,2.9,0.2,4.1c0.7,1.2,1.9,1.7,3.3,1.7
							c0.6,0,1.5-0.2,1.9-0.7c0.4-0.5-0.4-0.5-0.7-0.5c-0.1,0-0.6-0.2-0.8-0.4c-0.4-0.3-0.6-0.6-0.8-1c-0.5-1-0.5-2.2-0.3-3.2
							c0.2-1,0.5-1.9,1.1-2.8c0.2-0.4,0.5-0.7,0.8-1c0.1-0.1,0.2-0.2,0.3-0.3c0.1-0.1,0.1,0,0,0c0.2-0.1,0.1-0.1-0.2,0
							c-0.3,0.1-0.6,0.2-1,0.2c0.7,0,1.5-0.2,2-0.5C174.3,262.8,174.3,262.4,173.7,262.4L173.7,262.4z"/>
					</g>
				</g>
				<g>
					<path class="st4" d="M153.6,258.4c-5.3-0.2-10.7-1.1-15.6-3.3c-13.1-6.1-20.1-21.4-19.9-35.9c0.1-14.5,6.2-28.2,13.1-40.9
						c4.4-8,9.1-15.7,14.3-23.1c9.2-13.3,28.8-13.9,38.7-1.2c0.1,0.1,0.1,0.2,0.2,0.2c5.3,6.8,8.8,14.8,11.9,22.8
						c3.9,10,7.3,20.3,8.2,31c0.9,10.7-0.7,21.8-6.3,31c-7.3,11.9-21.2,19.5-35.2,19"/>
				</g>
			</g>
			<g>
				<g>
					<path class="st3" d="M147.3,181.5c-1.3-2.3,1.6-4.5,3.7-4.4c2.4,0.2,4.2,2.3,4.7,4.5c0.2,1,2.2,0.3,2.6-0.1
						c1.5-1.4,3.6-3.5,5.8-3.4c1.9,0.1,3.9,1.7,3.8,3.7c-0.1,1.2,2.9,0.7,2.9-0.3c0.1-3.1-2.8-4.9-5.6-5.1c-3.7-0.2-6.7,2.2-9.3,4.6
						c0.9,0,1.7-0.1,2.6-0.1c-0.8-3.8-4.5-6-8.3-5.4c-3.1,0.5-7.8,3.5-5.7,7.2C145.2,183.6,148,182.6,147.3,181.5L147.3,181.5z"/>
				</g>
			</g>
			<g>
				<g>
					<path class="st3" d="M135.8,209.7c0.2-1.4,1.1-2.9,2.5-3.2c1.5-0.3,2.9,0.8,3.6,1.9c0.6,0.9,2.6,0.2,2.8-0.7
						c0.3-1.6,1.6-2.9,3.2-2.9c1.9,0,3.6,1.3,4.8,2.7c0.8,0.9,3.5-0.2,2.7-1.2c-1.9-2.2-4.6-3.7-7.6-3.4c-2.7,0.3-5.5,2.2-6,5
						c0.9-0.2,1.9-0.5,2.8-0.7c-3.1-4.7-11-2.7-11.7,2.8C132.7,211.3,135.6,210.8,135.8,209.7L135.8,209.7z"/>
				</g>
			</g>
			<g>
				<g>
					<path class="st3" d="M174.1,197.3c0.1-0.6,0.4-1.1,0.8-1.5c0.2-0.2,0.3-0.3,0.5-0.5c0.1,0,0.3-0.1,0.2-0.1c1-0.1,2,0.8,2.5,1.5
						c0.2,0.3,1.2,0.1,1.5,0c0.5-0.1,1-0.3,1.3-0.8c0.2-0.4,0.5-0.6,0.8-0.8c-0.2,0.1,0.3-0.1,0,0c0.1,0,0.2,0,0.1,0
						c0.1,0,0.3,0,0.5,0c1,0,1.9,0.6,2.4,1.4c0.5,0.8,3.2-0.2,2.9-0.8c-2-3.2-7.7-2.3-9.5,0.7c0.9-0.2,1.9-0.5,2.8-0.7
						c-2.3-3.3-8.6-1.8-9.5,2C171,198.6,173.9,198.1,174.1,197.3L174.1,197.3z"/>
				</g>
			</g>
			<g>
				<g>
					<path class="st3" d="M164.9,230c1-1.8,2.8-3.8,5.1-3.5c2.2,0.3,4.2,2,4.8,4.1c0.2,0.8,2.7-0.1,2.9-0.6c0.5-1.3,1.6-2.7,3.1-2.5
						c1.7,0.2,3.1,1.4,3.8,2.9c0.4,0.8,3.2-0.2,2.9-0.8c-2.5-5.2-10.6-4.1-12.7,0.9c1-0.2,1.9-0.4,2.9-0.6c-0.9-3.2-4.2-4.9-7.4-4.6
						c-3.4,0.3-6.6,2.2-8.2,5.3c-0.3,0.5,1,0.4,1.2,0.4C163.8,230.8,164.7,230.5,164.9,230L164.9,230z"/>
				</g>
			</g>
		</g>
		<g>
			<path class="st5" d="M105.5,100.9c-5.1-0.7-10.3,1.1-13,5.6c-1.8,2.8-2.4,6.9-1.8,10.1c1.5,7.6,10.7,8.5,16.8,6.3
				c-1.5,0.5,1.2,4.4,1.6,4.9c1.4,1.5,3.3,2.6,5.3,3.2c7.8,2.2,17-1.2,21.1-8.3c-0.5,0.9,6,3.5,6.7,3.7c2.7,0.7,5.6,0.7,8.4,0.1
				c2.8-0.6,5.4-1.8,7.6-3.6c2.3-1.8,4.8-7.2,4.8-7.2s2.7-0.3,3.6-0.7c2.5-1.1,4.7-3,6.3-5.2c0.9-1.3,1.7-2.8,1.7-4.4
				c0-3.2-3.2-5.7-6.5-6.1c-3.2-0.4-6.4,0.8-9.4,2c-1.9-5.1-7.7-8.2-13.2-7.9c-5.5,0.3-10.5,3.5-14,7.7c-3-3.8-7.8-6.2-12.7-6.4
				c-4.9-0.1-9.8,2-13,5.7"/>
		</g>
	</g>
	<g>
		<g>
			<g>
				<g>
					<path class="st0" d="M655.2,236.1c-0.2,0.1-0.1-0.4,0.1-0.3c0.2,0.1,0.3,0.4,0.2,0.6c-0.5,17-1.8,32.4-2.2,49.5
						c0,0,4.7,3.2,11.8,2.7c7.1-0.5,10.7-3.7,10.7-3.7c0.6-17.2,1.5-34.3,2.5-51.5"/>
				</g>
				<g>
					<g>
						<g>
							<path class="st1" d="M671.5,234.4c-0.1,16.2-0.8,32.4-1.9,48.6c-0.1,1.2,2.8,0.6,2.9-0.4c1-16.2,1.8-32.4,1.9-48.6
								C674.4,232.9,671.5,233.5,671.5,234.4L671.5,234.4z"/>
						</g>
					</g>
					<g>
						<g>
							<path class="st1" d="M666,238.7c0.6,11.9-0.6,23.9-1.5,35.8c-0.1,1.5,2.8,1.1,2.9-0.2c0.9-11.9,2.1-23.9,1.5-35.8
								C668.8,237,665.9,237.4,666,238.7L666,238.7z"/>
						</g>
					</g>
					<g>
						<g>
							<path class="st1" d="M662.2,239c0.2,14.3-1.7,28.6-1.6,43c0,0.6,2.9,0.1,2.9-0.8c-0.2-14.3,1.7-28.6,1.6-43
								C665.1,237.6,662.2,238.1,662.2,239L662.2,239z"/>
						</g>
					</g>
					<g>
						<g>
							<path class="st1" d="M657.5,240.4c-0.8,13.5-1.4,27-1.6,40.6c0,1.1,2.9,0.5,2.9-0.4c0.3-13.5,0.8-27.1,1.6-40.6
								C660.5,238.9,657.6,239.5,657.5,240.4L657.5,240.4z"/>
						</g>
					</g>
				</g>
				<g>
					<path class="st2" d="M657.9,246c-5.3,3.5-12.2,3.9-18.5,2.8c-8.6-1.4-17.1-5.4-22-12.6c-4.9-7.2-5.1-17.8,1-24
						c-9.4,0-18-7.5-20.3-16.6c-2.4-9.1,0.9-19.2,7.2-26.2c6.3-7,15.3-11.2,24.6-12.9c-2.1-6.5-1.9-13.6,0.3-20
						c3-8.7,9.9-15.8,18.2-19.8c8.3-4,17.8-5.1,26.9-3.9c3.2,0.4,6.3,1.2,9.1,2.6c7.6,4,11.6,12.5,14.9,20.4
						c7.1,0.1,14.2,2.2,19.8,6.6c5.6,4.3,9.5,11,9.9,18c0.8,12.4-8.5,22.9-17.1,31.8c8.5,10.3,9.8,26.1,3.1,37.7
						c-6.8,11.6-21.1,18.2-34.3,15.8"/>
				</g>
			</g>
			<g>
				<g>
					<path class="st3" d="M661.6,144.5c0.2,2.1,0.5,4.2,0.7,6.3c0,0.2,0.4,0.3,0.5,0.3c0.3,0.1,0.8,0,1.1-0.1c0.4-0.1,1.3-0.4,1.3-1
						c-0.2-2.1-0.5-4.2-0.7-6.3c0-0.2-0.4-0.3-0.5-0.3c-0.3-0.1-0.8,0-1.1,0.1C662.5,143.6,661.6,143.9,661.6,144.5L661.6,144.5z"/>
				</g>
			</g>
			<g>
				<g>
					<path class="st3" d="M693.4,143.8c0,0.9,0,1.8,0,2.7c0,0.1,0,0.2,0.1,0.3c0,0.1,0.1,0.2,0.3,0.3c0.3,0.2,0.7,0.2,1,0.2
						c0.4,0,0.8-0.2,1.1-0.4c0.1-0.1,0.2-0.1,0.3-0.2c0.1-0.1,0.2-0.3,0.3-0.5c0-0.9,0-1.8,0-2.7c0-0.1,0-0.2-0.1-0.3
						c0-0.1-0.1-0.2-0.3-0.3c-0.3-0.2-0.7-0.2-1-0.2c-0.4,0-0.8,0.2-1.1,0.4c-0.1,0.1-0.2,0.1-0.3,0.2
						C693.5,143.5,693.4,143.6,693.4,143.8L693.4,143.8z"/>
				</g>
			</g>
			<g>
				<g>
					<path class="st3" d="M632.5,177.1c-0.1,1.5,0,3,0.4,4.5c0.1,0.2,0.4,0.2,0.5,0.2c0.3,0,0.7,0,1.1-0.1c0.3-0.1,0.7-0.2,1-0.4
						c0.1-0.1,0.4-0.3,0.3-0.5c-0.4-1.5-0.6-3-0.4-4.5c0-0.2-0.5-0.2-0.5-0.2c-0.3,0-0.7,0-1.1,0.1c-0.3,0.1-0.7,0.2-1,0.4
						C632.7,176.8,632.6,176.9,632.5,177.1L632.5,177.1z"/>
				</g>
			</g>
			<g>
				<g>
					<path class="st3" d="M666.5,176c-0.5,1.2-0.6,2.5-0.4,3.8c0,0.2,0.4,0.4,0.6,0.4c0.3,0.1,0.8,0,1.1-0.1c0.3-0.1,0.7-0.2,1-0.5
						c0.2-0.2,0.3-0.4,0.3-0.7c0-0.3-0.1-0.6-0.1-1c0,0.1,0,0.1,0,0.2c0-0.9,0.2-1.8,0.5-2.6c0.1-0.2-0.1-0.5-0.3-0.5
						c-0.3-0.1-0.7-0.2-1-0.1c-0.4,0.1-0.8,0.2-1.1,0.4C666.8,175.6,666.7,175.8,666.5,176L666.5,176z"/>
				</g>
			</g>
			<g>
				<g>
					<path class="st3" d="M698.8,167.1c-0.1,0.9-0.3,1.8-0.4,2.7c0,0.3,0.1,0.5,0.3,0.6c0.3,0.2,0.7,0.2,1,0.1
						c0.4-0.1,0.8-0.2,1.1-0.4c0.2-0.2,0.5-0.4,0.5-0.7c0.1-0.9,0.3-1.8,0.4-2.7c0-0.3-0.1-0.5-0.3-0.6c-0.3-0.2-0.7-0.2-1-0.1
						c-0.4,0.1-0.8,0.2-1.1,0.4C699.1,166.6,698.8,166.8,698.8,167.1L698.8,167.1z"/>
				</g>
			</g>
			<g>
				<g>
					<path class="st3" d="M692.9,204.4c0.2,2.1,0.1,4.1-0.4,6.1c-0.1,0.6,0.9,0.4,1.2,0.4c0.4-0.1,0.8-0.2,1.1-0.4
						c0.2-0.1,0.5-0.3,0.6-0.5c0.5-2.1,0.6-4.3,0.4-6.4c0-0.2-0.4-0.3-0.5-0.3c-0.3,0-0.7,0-1.1,0.1c-0.3,0.1-0.7,0.2-1,0.4
						C693.1,204.1,692.9,204.2,692.9,204.4L692.9,204.4z"/>
				</g>
			</g>
			<g>
				<g>
					<path class="st3" d="M644.2,220.5c0.4,1.8,0.9,3.6,1.3,5.4c0,0.2,0.4,0.2,0.5,0.2c0.3,0,0.7,0,1.1-0.1c0.3-0.1,0.7-0.2,1-0.4
						c0.1-0.1,0.4-0.3,0.3-0.5c-0.4-1.8-0.9-3.6-1.3-5.4c0-0.2-0.4-0.2-0.5-0.2c-0.3,0-0.7,0-1.1,0.1c-0.3,0.1-0.7,0.2-1,0.4
						C644.4,220.2,644.2,220.3,644.2,220.5L644.2,220.5z"/>
				</g>
			</g>
			<g>
				<g>
					<path class="st3" d="M674.7,197.6c-0.3,1-0.6,2.1-0.9,3.1c-0.1,0.1-0.1,0.3-0.1,0.4c0,0.2,0,0.3,0.1,0.4
						c0.2,0.3,0.5,0.4,0.8,0.5c0.4,0,0.8,0,1.1-0.2c0.3-0.2,0.6-0.4,0.7-0.7c0.3-1,0.6-2.1,0.9-3.1c0.1-0.1,0.1-0.3,0.1-0.4
						c0-0.2,0-0.3-0.1-0.4c-0.2-0.3-0.5-0.4-0.8-0.5c-0.4,0-0.8,0-1.1,0.2C675.1,197,674.7,197.3,674.7,197.6L674.7,197.6z"/>
				</g>
			</g>
		</g>
		<g>
			<path class="st5" d="M307.1,15.2c-7.8-1-15.9,1.8-20.3,8.7c-2.8,4.4-3.7,10.6-2.7,15.7c2.3,11.8,16.6,13.1,26,9.8
				c-2.3,0.8,1.8,6.9,2.4,7.5c2.2,2.4,5.2,4,8.3,4.9c12.1,3.5,26.5-1.8,32.7-12.9c-0.8,1.3,9.3,5.5,10.5,5.8c4.2,1.1,8.7,1.1,13,0.2
				c4.3-0.9,8.4-2.8,11.8-5.6c3.5-2.8,7.4-11.2,7.4-11.2s4.2-0.4,5.7-1.1c3.9-1.8,7.3-4.6,9.8-8.1c1.4-2,2.6-4.4,2.6-6.8
				c0-5-5-8.9-10-9.4c-5-0.6-9.9,1.3-14.6,3.2c-3-8-12-12.7-20.5-12.3C360.8,4.1,353,9,347.5,15.5c-4.7-6-12.2-9.7-19.8-9.9
				c-7.6-0.2-15.2,3.1-20.2,8.9"/>
		</g>
		<g>
			<g>
				<g>
					<path class="st6" d="M504.8,38.6c-1-1.6,0.4-3.7,2.2-4.5c1.7-0.8,3.9-0.8,5.5,0.2c1.7,1,2.7,3,2.2,4.9"/>
				</g>
				<g>
					<g>
						<path class="st7" d="M539.9,128.7c8.5-4.1,20.3-6.7,29.5-3.9c8.5,2.6,13.5,11.5,15.7,19.5c3.6,13.1,3,27.6,2.4,41
							c-0.5,11.2-1.9,22.9-8.2,32.3c-6.3,9.4-18.5,15.5-29.1,11.6"/>
					</g>
					<path class="st8" d="M545.4,95.8c-0.4-11.1-1.9-22.4-8.1-31.4c-7.8-11.4-21.8-17.3-35.5-18.1c-4.9-0.3-9.8-0.1-14.5,1.3
						c-9.9,3-17.8,10.8-23,19.8c-5.1,9-8.9,29.2-8.9,29.2c-6.1,5.7-9.7,12.7-9.7,20.2c0,19.7,24.7,35.6,55.1,35.6
						c30.5,0,55.1-16,55.1-35.6C556.1,108.9,552.1,101.7,545.4,95.8z"/>
					<ellipse class="st9" cx="484.7" cy="94.1" rx="3.5" ry="4.6"/>
					<path class="st9" d="M517.1,94.1c0,2.5-1.6,4.6-3.5,4.6c-1.9,0-3.5-2.1-3.5-4.6c0-2.5,1.6-4.6,3.5-4.6
						C515.5,89.5,517.1,91.6,517.1,94.1z"/>
					<path class="st9" d="M505.7,107.9c0,1.8-3.2,3.3-7.2,3.3c-4,0-7.2-1.5-7.2-3.3c0-1.8,3.2-3.3,7.2-3.3
						C502.5,104.6,505.7,106.1,505.7,107.9z"/>
					<g>
						<g>
							<path class="st8" d="M464.2,65.2c-1.7,1.6-4.3,1.7-6.5,1.1c-4.9-1.4-8.6-5.9-9.5-10.9c-0.9-5,1-10.3,4.6-13.9
								c3.1-3.1,7.5-5.1,11.9-4.8c6.2,0.4,11.8,5.6,12.6,11.8"/>
						</g>
						<g>
							<g>
								<path class="st9" d="M459,48c2.1,2.2,4.1,4.4,6.2,6.7c0.4,0.5,1.4,0.3,1.9,0.1c0.4-0.2,1.2-0.7,0.8-1.2
									c-2.1-2.2-4.1-4.4-6.2-6.7c-0.4-0.5-1.4-0.3-1.9-0.1C459.4,46.9,458.6,47.5,459,48L459,48z"/>
							</g>
						</g>
					</g>
					<g>
						<g>
							<path class="st8" d="M530.3,55.9c0.1-3.7,3.5-6.6,7-7.8c5.1-1.7,11.3-0.9,15.3,2.7c4.3,3.9,5.5,10.8,3.1,16.1
								c-2.4,5.3-8.2,8.9-14,9"/>
						</g>
						<g>
							<g>
								<path class="st9" d="M543.4,62.2c0.5-0.4,0.9-0.8,1.4-1.3c0.1-0.1,0.2-0.2,0.3-0.3c0.1-0.1,0.1-0.1,0,0
									c0.1-0.1,0.1-0.1,0.2-0.2c0.2-0.2,0.5-0.4,0.8-0.6c1-0.7,2.1-1.4,3.2-2.1c0.4-0.3,0.8-1,0.2-1.3c-0.7-0.3-1.5-0.1-2.1,0.2
									c-2.3,1.3-4.5,2.9-6.4,4.8c-0.2,0.2-0.3,0.4-0.3,0.7c0.1,0.2,0.3,0.4,0.6,0.5C542,62.9,542.9,62.7,543.4,62.2L543.4,62.2z"
									/>
							</g>
						</g>
					</g>
					<g>
						<g>
							<path class="st9" d="M496.9,110.5c-0.2,4.2-0.3,8.4-0.5,12.6c0,0.4,2.9,0.1,2.9-0.8c0.2-4.2,0.3-8.4,0.5-12.6
								C499.8,109.3,496.9,109.6,496.9,110.5L496.9,110.5z"/>
						</g>
					</g>
					<g>
						<g>
							<path class="st9" d="M483.4,119.1c4.2,4,10.3,4.9,15.9,4.8c5.5-0.2,11.3-1.7,15-5.9c1.2-1.4-1.5-1.9-2.4-0.9
								c-3.2,3.6-8.1,4.6-12.7,4.7c-4.8,0.1-9.9-0.8-13.6-4.3C484.7,116.4,482.2,117.9,483.4,119.1L483.4,119.1z"/>
						</g>
					</g>
					<g>
						<g>
							<path class="st10" d="M458.5,75.3c1.4-13,9.8-24.4,20.8-31.5c12.4-8,29.1-9.4,42.5-3.1c17.4,8.2,22.1,26.6,25,44.2
								L458.5,75.3z"/>
						</g>
						<g>
							<path class="st11" d="M480.8,78.5c2.2-12.9,8.4-32.5,15-38.1c7.5-6.3,16.4-5.2,22.8,3.1c8.3,10.9,7.1,24.4,6.5,39.1"/>
						</g>
						<g>
							<path class="st12" d="M458.4,76.4c-3.6-0.6-5-4.2-6-7.6c-0.7-2.5-1.1-5.2-0.1-7.6c1.1-2.9,4-5,7.1-6.1
								c13.7-4.8,28.8-0.9,42,3.3c17.7,5.6,30.5,15.8,44.7,27L458.4,76.4z"/>
						</g>
					</g>
					<g>
						<path class="st8" d="M550.6,235.2c20,4.1,12.3,38.1,12.9,48.2c0.3,5.6-0.4,12.8-5.7,14.5c-5.1,1.7-10-3.4-12-8.4
							c-0.5-1.2-1-2.6-1.9-3.5c-1.4-1.5-8-2.2-12.1-4.3l-50.2-18.5c-29.5-8.3-39.4-38-37.6-65.8c1.3-20.8,5-42,12.8-61.4"/>
					</g>
					<g>
						<path class="st8" d="M489.9,216c-3.6,14-7.1,28-10.7,41.9c-0.6,2.2-1.1,4.5-2.3,6.4c-1.9,3-5,5-7.9,7
							c-4.5,3.1-8.9,6.7-11.6,11.5c-2.8,4.7-3.7,10.8-1.3,15.8c3.7,7.7,13.6,10,22.2,10.2c16.1,0.4,32.3-3.2,46.8-10.4
							c2.4-1.2,4.9-2.6,6.7-4.7c2-2.4,2.9-5.6,3.7-8.7c4-15,7.2-30.3,11.8-45.1c4.3-13.9,11.1-35.7,11.1-50.6
							c0-21.5-11.7-66.5-11.7-66.5l-89.3,19"/>
					</g>
					<g>
						<path class="st13" d="M457.6,138.2c-4,20.6-8,41.3-17.2,56l2.4,17.3c18.2-11.8,27-42.8,26.8-65.9"/>
					</g>
					<g>
						<path class="st8" d="M468.1,161c3.2,8.9,2,19.5-4,27c-6.8,8.5-16,9-25.7,7.4c-1.8-0.3-3.2-1.7-3.9-3.3c-0.8-1.6-1-3.4-1.1-5.2
							c-0.8-10.9,0.7-28.3,10.2-35.6C451.3,145.2,465.1,152.7,468.1,161z"/>
					</g>
					<g>
						<path class="st13" d="M557.8,210.5c-12.4-22.9-17-45.8-14.9-71.4l-14.2,4.7c-1.6,21.7,3.7,45.2,13,65.2
							c2.7,5.7,6.1,11.6,12.1,14.5"/>
					</g>
					<g>
						<path class="st8" d="M552.7,154.6c-20.2-12.7-39,24.8-23.1,38.2c13.8,11.7,36,4.6,42.5-11.8c6.7-17-3.8-42.7-24.2-42.3"/>
					</g>
					<g>
						<g>
							<g>
								<path class="st14" d="M481.5,217.5c0,15.5-1.6,30.9-4.8,46c-0.2,0.7,2.7,0.3,2.9-0.5c3.3-15.2,4.9-30.7,4.9-46.3
									C484.4,216.1,481.5,216.6,481.5,217.5L481.5,217.5z"/>
							</g>
						</g>
						<g>
							<g>
								<path class="st14" d="M550.4,224.1c-4.2,16.2-8.4,32.4-12.6,48.6c-1.1,4.4-2.3,8.8-4.2,12.9c-0.3,0.6,2.5,0.4,2.9-0.5
									c3.3-7.3,4.9-15.4,6.9-23.2c2.1-8.1,4.2-16.2,6.3-24.3c1.2-4.7,2.4-9.3,3.6-14C553.4,222.8,550.6,223.2,550.4,224.1
									L550.4,224.1z"/>
							</g>
						</g>
						<g>
							<g>
								<path class="st14" d="M564.3,189.9c-5.2,3.4-11.1,6.6-17.3,7.5c-6,0.8-11.9-1.1-16-5.5c-7.5-8.1-7.9-20.5-1.5-29.3
									c3.6-4.9,8.7-8.6,14.5-10.4c1.8-0.5,1.2-2.6-0.6-2.1c-11.4,3.5-21.3,13.7-21.5,26.1c-0.1,5.8,1.9,11.7,5.7,16.2
									c4.2,5,10.3,7.6,16.8,7.4c7.9-0.3,15.3-4.3,21.8-8.5c0.6-0.4,0.7-1.1,0.1-1.6C565.8,189.3,564.9,189.6,564.3,189.9
									L564.3,189.9z"/>
							</g>
						</g>
						<g>
							<g>
								<path class="st14" d="M450.6,197c7.4-1.2,14-5.5,18.1-11.7c4.2-6.3,5.2-14.3,2.9-21.5c-1.3-4.1-3.6-7.9-6.7-10.8
									c-0.9-0.8-3.6,0.3-2.7,1.2c5.1,4.8,7.9,11.7,7.7,18.7c-0.2,6.8-3.5,13.2-8.9,17.5c-2.9,2.3-6.4,4-10.1,4.6
									c-0.6,0.1-1.5,0.4-1.6,1.1C449.2,196.8,450,197.1,450.6,197L450.6,197z"/>
							</g>
						</g>
						<g>
							<g>
								<path class="st14" d="M502.3,148.3c7.4-0.1,14.8-0.5,22.1-2.1c6.3-1.4,12.4-3.8,18-7.2c3.4-2,6.6-4.4,9.7-6.9
									c0.5-0.4,0.3-0.7-0.2-0.9c-0.6-0.2-1.6,0.2-2,0.5c-5,4-10.3,7.6-16.1,10.1c-5.6,2.4-11.6,3.7-17.7,4.3
									c-4.2,0.4-8.4,0.6-12.5,0.6c-0.5,0-1.6,0.2-1.9,0.7C501.3,148.1,501.9,148.3,502.3,148.3L502.3,148.3z"/>
							</g>
						</g>
					</g>
				</g>
			</g>
			<g>
				<path class="st15" d="M469.1,195.6c0.1-5.4,1.7-10.6,4.1-15.5c2-4,4.5-7.8,8.1-10.3c7.2-5.1,17-2.5,22.5,3.9
					c8.7,10.2,10.1,28.8,0,38.8c-12.5,12.4-33.8,1.3-34.7-15.1C469.1,196.7,469,196.1,469.1,195.6z"/>
			</g>
			<g>
				<g>
					<path class="st14" d="M471.6,212.6c9.4,5.7,20.6,8,31.5,6.7c0.6-0.1,1.6-0.4,1.6-1.1c0.1-0.7-0.8-0.8-1.3-0.8
						c-10.3,1.3-20.7-1-29.6-6.4C472.9,210.6,470.3,211.9,471.6,212.6L471.6,212.6z"/>
				</g>
			</g>
		</g>
		<g>
			<g>
				<g>
					<g>
						<path class="st16" d="M349.6,225.6c3-12,10.5-22.8,20.7-29.9c9.4-6.5,20.6-9.7,30.3-15.6c9.6-5.9,17.5-14.4,22.6-24.3
							c1.7,12,3.3,24.3,0.9,36.1c-3.2,15.8-13.8,29.7-27.6,38.1c-13.8,8.3-30.6,11.2-46.6,9.1"/>
					</g>
					<g>
						<path class="st5" d="M400.5,180.1c-1.8,1.1-3.7,2.1-5.6,3.1c-1,1.5-1.9,3.1-2.9,4.6c-0.3,0.4-0.6,0.9-0.5,1.4
							c0.1,1.3,2,1.4,3.4,1.1c3.1-0.8,6.2-1.6,9.3-2.6c-3.6,6.1-6.4,12.7-8.3,19.5c5.7-2.5,10.9-6,15.3-10.3
							c-0.5,3.3-0.7,6.7-0.7,10.1c0,0.6,0.1,1.3,0.5,1.7c0.7,0.7,1.9,0.2,2.8-0.3c1.9-1.1,3.7-2.2,5.6-3.3c2.1-4.2,3.7-8.7,4.6-13.3
							c2.4-11.9,0.7-24.1-0.9-36.1C418,165.8,410.1,174.3,400.5,180.1z"/>
					</g>
				</g>
				<g>
					<path class="st17" d="M343.5,155.6c6.9-3.3,16.5-5.5,24-3.2c6.9,2.1,11,9.4,12.8,15.9c2.9,10.7,2.4,22.5,2,33.4
						c-0.4,9.2-1.6,18.7-6.7,26.4c-5.1,7.6-15.1,12.7-23.7,9.5"/>
				</g>
				<g>
					<path class="st16" d="M352.3,242.5c16.3,3.3,10,31.1,10.5,39.3c0.3,4.6-0.3,10.4-4.7,11.9c-4.2,1.4-8.2-2.8-9.8-6.9
						c-0.4-1-0.8-2.1-1.5-2.9c-1.1-1.2-6.6-1.8-9.9-3.5l-41-15.1c-24.1-6.8-32.1-31-30.7-53.7c1.1-16.9,4.1-34.3,10.4-50.1"/>
				</g>
				<g>
					<path class="st16" d="M302.8,226.8c-2.9,11.4-5.8,22.8-8.7,34.2c-0.5,1.8-0.9,3.6-1.9,5.2c-1.5,2.5-4.1,4.1-6.5,5.7
						c-3.7,2.5-7.2,5.5-9.5,9.4c-2.3,3.9-3,8.8-1.1,12.9c3,6.3,11.1,8.1,18.1,8.3c13.2,0.3,26.4-2.6,38.2-8.5c2-1,4-2.1,5.4-3.8
						c1.7-2,2.4-4.6,3-7.1c3.3-12.2,5.9-24.7,9.6-36.8c3.5-11.3,9-29.1,9-41.2c0-17.6-9.6-54.2-9.6-54.2l-72.9,15.5"/>
				</g>
				<g>
					<path class="st18" d="M276.4,163.3c-3.3,16.8-6.5,33.7-14.1,45.7l2,14.1c14.9-9.6,21.7-36.2,21.6-55.1"/>
				</g>
				<g>
					<path class="st16" d="M284.9,182c2.6,7.3,1.7,15.9-3.3,22c-5.6,6.9-13,7.3-21,6c-1.4-0.2-2.6-1.4-3.2-2.7
						c-0.6-1.3-0.8-2.8-0.9-4.2c-0.6-8.9,0.5-23.1,8.3-29C271.3,169.1,282.5,175.2,284.9,182z"/>
				</g>
				<g>
					<path class="st18" d="M358.2,222.3c-10.1-18.7-13.9-37.4-12.2-58.2l-11.6,3.8c-1.3,17.7,3,36.9,10.6,53.2
						c2.2,4.7,5,9.5,9.8,11.8"/>
				</g>
				<g>
					<path class="st16" d="M354,176.7c-16.5-10.4-31.8,20.3-18.9,31.2c11.3,9.5,29.4,3.7,34.6-9.6c5.5-13.8-3.1-34.8-19.7-34.5"/>
				</g>
				<g>
					<g>
						<g>
							<path class="st19" d="M288.7,222.8c3.8,2.3,7.8,4.9,12.3,5.7c4.4,0.9,9,0.2,13.3-0.3c0.5-0.1,1.6-0.2,1.9-0.7
								c0.3-0.5-0.2-0.5-0.7-0.5c-4.1,0.5-8.4,1.2-12.5,0.3c-4.2-0.9-8.1-3.3-11.7-5.6c-0.5-0.3-1.4,0-1.9,0.2
								C289.4,222.1,288.3,222.6,288.7,222.8L288.7,222.8z"/>
						</g>
					</g>
					<g>
						<g>
							<path class="st19" d="M296.3,225c-0.9,1.2-0.7,2.7-0.7,4.1c0,1.8,0,3.7-0.1,5.5c-0.1,3.6-0.4,7.2-0.7,10.8
								c-0.7,6.8-1.7,13.5-3.1,20.1c-0.3,1.3,2.7,0.9,2.9-0.3c1.4-6.5,2.4-13.1,3.1-19.7c0.3-3.4,0.6-6.8,0.7-10.3
								c0.1-1.8,0.1-3.5,0.1-5.3c0-1.5-0.4-3.6,0.6-4.8c0.4-0.6-0.4-1-0.8-1.1C297.5,224,296.8,224.4,296.3,225L296.3,225z"/>
						</g>
					</g>
					<g>
						<g>
							<path class="st19" d="M351.8,233.3c-2.2,8.6-4.4,17.1-6.6,25.7c-1,4-2.1,8-3.1,12c-1.1,4.2-2.1,8.3-3.9,12.3
								c-0.7,1.5,2.2,1.6,2.8,0.4c1.7-3.8,2.8-7.9,3.8-12c1.1-4.1,2.1-8.2,3.2-12.4c2.3-8.7,4.5-17.4,6.8-26.1
								C355.1,231.7,352.1,232,351.8,233.3L351.8,233.3z"/>
						</g>
					</g>
					<g>
						<g>
							<path class="st19" d="M363.3,205.7c-4.3,2.8-9,5.5-14.2,6.1c-4.7,0.6-9.2-1.1-12.6-4.4c-6.5-6.2-6.4-16.5-1.6-23.7
								c2.8-4.2,7.1-7.4,11.9-8.9c0.4-0.1,1.4-0.5,1.2-1.2c-0.2-0.6-1.2-0.5-1.7-0.4c-9.9,3.1-17.9,11.7-17.9,22.4
								c0,10,8.3,18.4,18.4,18c6.6-0.3,12.7-3.5,18.2-7c0.5-0.3,0.8-0.8,0.2-1.2C364.9,205,363.8,205.4,363.3,205.7L363.3,205.7z"/>
						</g>
					</g>
					<g>
						<g>
							<path class="st19" d="M270.5,212.1c6-1,11.5-4.3,15-9.4c3.5-5.1,4.4-11.6,2.6-17.5c-1-3.4-3-6.5-5.5-8.9
								c-0.6-0.6-3.3,0.5-2.7,1.1c5.3,5,7.5,12.9,5.6,19.9c-1.9,6.6-7.6,12.3-14.4,13.5c-0.4,0.1-1.6,0.3-1.7,0.9
								C269.3,212.2,270.1,212.1,270.5,212.1L270.5,212.1z"/>
						</g>
					</g>
					<g>
						<g>
							<path class="st14" d="M312.8,171.7c7.6-0.1,15.3-0.6,22.5-2.9c6.8-2.2,12.9-5.9,18.4-10.4c0.5-0.4,0.3-0.7-0.2-0.9
								c-0.6-0.2-1.6,0.2-2,0.5c-5,4.1-10.5,7.6-16.8,9.5c-6.7,2.1-13.8,2.6-20.7,2.6c-0.5,0-1.6,0.2-1.9,0.7
								C311.7,171.6,312.3,171.7,312.8,171.7L312.8,171.7z"/>
						</g>
					</g>
				</g>
				<g>
					<path class="st5" d="M359.7,123c-3-4.1-5.2-8.7-6.9-13.5c-1.2-3.5-3.3-5.9-7.2-10.6c-7.8-9.3-21.4-13.7-34.5-13.8
						c-4.6,0-9.3,0.4-13.7,1.8c-9.3,2.9-16.5,10-21.1,17.9c-2.2,3.8-4.1,8-5.4,11.4c-1.4,3.5-3.3,6.7-5.4,9.8
						c-3.5,5.1-5.4,11.7-5.2,16.7c0.8,16.7,25,30,54,28.6c29-1.4,51.8-16.9,51-33.6C365.2,133.1,363.1,127.5,359.7,123z"/>
					<g>
						<path class="st5" d="M325.3,93.5c2.8-3.8,5.6-7.7,9.2-10.9c3.6-3.2,8-5.6,12.7-5.9c1-0.1,2,0,2.9,0.4c1.2,0.7,1.7,2.2,2.1,3.5
							c3.5,12.1,3.5,25.2,0,37.4"/>
					</g>
					<g>
						<path class="st16" d="M359.7,123c-2.6-3.5-4.5-7.3-6.1-11.3c1.9-10.3,1.4-21-1.5-31c-0.4-1.4-0.9-2.8-2.1-3.5
							c-0.9-0.5-1.9-0.5-2.9-0.4c-4.7,0.4-9.1,2.8-12.7,5.9c-1.9,1.7-3.6,3.6-5.2,5.5c-5.7-2-12-3-18.1-3.1c-4.6,0-9.3,0.4-13.7,1.8
							c-0.6,0.2-1.3,0.4-1.9,0.7l-8-7.3c-1.5-1.4-3.4-2.4-5.5-2.6c-6-0.7-8.2,4.5-9.4,9c-2.6,9.9-3.5,20.3-2.9,30.5
							c0,0.4,0.1,0.7,0.1,1.1c-1.3,2.7-2.8,5.2-4.5,7.6c-2.9,4.2-4.7,9.4-5.1,13.9c14.9,1.4,23.6-3.3,35.2-12.7c0,0,0.1-0.1,0.1-0.1
							c6.6-5.5,17.4-4.6,23.3,1.7c1.8,1.9,3.6,3.7,5,4.9c10.6,9.5,25.2,14.4,39.3,13.5c1.5-3,2.2-6.2,2.1-9.4
							C365.2,133.1,363.1,127.5,359.7,123z"/>
					</g>
					<g>
						<g>
							<g>
								<path class="st9" d="M296.3,119.5c0,1.8-1.4,3.2-3.2,3.2c-1.8,0-3.2-1.4-3.2-3.2c0-1.8,1.4-3.2,3.2-3.2
									C294.9,116.3,296.3,117.7,296.3,119.5z"/>
								<path class="st9" d="M322.5,119.5c0,1.8-1.4,3.2-3.2,3.2c-1.8,0-3.2-1.4-3.2-3.2c0-1.8,1.4-3.2,3.2-3.2
									C321.1,116.3,322.5,117.7,322.5,119.5z"/>
							</g>
							<path class="st9" d="M312.1,129.7c0,1.6-2.9,3-6.5,3c-3.6,0-6.6-1.3-6.6-3c0-1.6,2.9-3,6.5-3
								C309.1,126.7,312.1,128.1,312.1,129.7z"/>
							<g>
								<g>
									<path class="st9" d="M303.9,132.1c-0.1,2.8-0.2,5.5-0.4,8.3c0,0.4,2.9,0.1,2.9-0.8c0.1-2.8,0.2-5.5,0.4-8.3
										C306.8,130.9,303.9,131.2,303.9,132.1L303.9,132.1z"/>
								</g>
							</g>
						</g>
						<g>
							<g>
								<path class="st9" d="M293.4,141c3.3,3.1,8.8,2.9,12.1-0.3c0.5-0.4,0.7-1.1,0.1-1.6c-0.5-0.4-1.6-0.3-2.1,0.1
									c-1.2,1.2-2.4,1.6-3.9,1.7c-0.2,0-0.2,0-0.4,0c-0.2,0-0.4-0.1-0.6-0.1c-0.3-0.1-0.6-0.1-0.9-0.3c-0.8-0.3-1.4-0.8-2-1.3
									c-0.5-0.5-1.6-0.3-2.1,0.1C292.9,139.8,292.8,140.5,293.4,141L293.4,141z"/>
							</g>
						</g>
						<g>
							<g>
								<path class="st9" d="M303.8,139.8c0.4,1.1,1.6,1.9,2.6,2.5c1.1,0.6,2.3,0.9,3.5,1c2.5,0.3,5.2-0.4,7.2-2
									c0.4-0.3,0.8-0.9,0.2-1.2c-0.6-0.3-1.6-0.1-2.1,0.2c-0.2,0.1-0.4,0.3-0.6,0.4c-0.1,0.1-0.2,0.1-0.3,0.2
									c-0.1,0.1,0,0-0.2,0.1c-0.2,0.1-0.4,0.2-0.6,0.3c-0.4,0.2,0.1,0-0.1,0c-0.1,0-0.2,0.1-0.3,0.1c-0.1,0-0.3,0.1-0.4,0.1
									c-0.1,0-0.2,0-0.1,0c-0.2,0-0.5,0.1-0.7,0.1c-0.3,0-0.7,0-1.2,0c-0.7-0.1-1.6-0.3-2.3-0.7c-0.7-0.4-1.7-0.9-2-1.8
									c-0.2-0.6-1.2-0.5-1.7-0.4C304.6,138.8,303.5,139.2,303.8,139.8L303.8,139.8z"/>
							</g>
						</g>
						<g>
							<g>
								<path class="st9" d="M318,129.1c2.9-0.4,5.8-0.9,8.7-1.5c0.5-0.1,1.4-0.6,1.2-1.3c-0.2-0.7-1.2-0.6-1.7-0.5
									c-2.7,0.6-5.1,1-7.9,1.4c-0.6,0.1-1.5,0.4-1.6,1.1C316.6,129,317.5,129.2,318,129.1L318,129.1z"/>
							</g>
						</g>
						<g>
							<g>
								<path class="st9" d="M318.5,131.6c2.2,0.3,4.4,0.4,6.6,0.2c0.6-0.1,1.5-0.2,1.9-0.8c0.4-0.5-0.3-0.7-0.7-0.7
									c-1,0.1-2,0.1-3.1,0.1c-0.9,0-1.8-0.1-2.9-0.2c-0.7-0.1-1.5,0.1-2,0.5c-0.2,0.1-0.4,0.3-0.3,0.5
									C318,131.5,318.3,131.6,318.5,131.6L318.5,131.6z"/>
							</g>
						</g>
						<g>
							<g>
								<path class="st9" d="M318.4,135.6c1.8,0.6,3.7,1.2,5.5,1.8c0.6,0.2,1.6,0,2-0.5c0.2-0.2,0.4-0.5,0.3-0.7
									c-0.1-0.3-0.3-0.4-0.6-0.5c-1.8-0.6-3.7-1.2-5.5-1.8c-0.6-0.2-1.6,0-2,0.5c-0.2,0.2-0.4,0.5-0.3,0.7
									C317.9,135.4,318.1,135.5,318.4,135.6L318.4,135.6z"/>
							</g>
						</g>
						<g>
							<g>
								<path class="st9" d="M285.1,126c2,1.1,4.1,2,6.2,2.7c0.7,0.2,1.5,0.1,2-0.3c0.2-0.1,0.5-0.3,0.6-0.6c0-0.2-0.1-0.4-0.3-0.5
									c-2.2-0.7-4.3-1.6-6.2-2.7c-0.3-0.1-0.7-0.1-0.9-0.1c-0.4,0-0.8,0.2-1.1,0.4C285,125.2,284.5,125.7,285.1,126L285.1,126z"/>
							</g>
						</g>
						<g>
							<g>
								<path class="st9" d="M282.5,131.8c2.3,0.1,4.6,0.3,6.9,0.4c0.7,0,1.5-0.1,2-0.5c0.1-0.1,0.4-0.3,0.3-0.5
									c-0.1-0.2-0.4-0.3-0.5-0.3c-2.3-0.1-4.6-0.3-6.9-0.4c-0.7,0-1.5,0.1-2,0.5c-0.1,0.1-0.4,0.3-0.3,0.5
									C282,131.7,282.3,131.8,282.5,131.8L282.5,131.8z"/>
							</g>
						</g>
						<g>
							<g>
								<path class="st9" d="M286.1,138c0.4-0.3,0.8-0.6,1.2-0.8c-0.4,0.2,0,0,0.1,0c0.1-0.1,0.2-0.1,0.3-0.2
									c0.2-0.1,0.4-0.2,0.6-0.3c0.2-0.1,0.4-0.2,0.6-0.3c0.1,0,0.1,0,0.2-0.1c0.2-0.1,0.1,0-0.1,0c0.1,0,0.2-0.1,0.4-0.1
									c0.5-0.1,0.9-0.3,1.4-0.4c0.3-0.1,0.7-0.3,1-0.5c0.2-0.2,0.4-0.5,0.3-0.7c-0.2-0.7-1.2-0.6-1.7-0.5
									c-2.2,0.5-4.3,1.4-6.1,2.7c-0.4,0.3-0.8,1-0.2,1.3C284.6,138.6,285.5,138.4,286.1,138L286.1,138z"/>
							</g>
						</g>
					</g>
					<g>
						<path class="st5" d="M277,106.2c-0.2-4.6,0.2-9.3,1.3-13.7c0.4-1.5,1-3.2,2.5-3.8c1.8-0.7,3.7,0.7,5.1,2
							c1.3,1.2,2.6,2.2,2.6,2.2"/>
					</g>
					<g>
						<path class="st5" d="M349.1,103.3c-0.4-4.6-1.4-9.2-3.1-13.4c-0.6-1.5-1.5-3.1-3-3.4c-1.9-0.4-3.5,1.2-4.8,2.7
							c-1.1,1.4-2.3,2.6-2.3,2.6"/>
					</g>
				</g>
			</g>
			<g>
				<path class="st20" d="M285.9,205.8c0-5.4,1.5-10.6,3.6-15.5c1.7-4,4-7.8,7.1-10.3c6.3-5.1,14.9-2.5,19.6,3.9
					c7.6,10.2,8.8,28.8,0,38.8c-10.9,12.4-29.5,1.3-30.3-15.1C285.9,206.9,285.9,206.4,285.9,205.8z"/>
			</g>
			<g>
				<g>
					<path class="st19" d="M289,223.1c3.9,2.4,7.9,4.9,12.4,5.8c4.4,0.9,9,0.3,13.5-0.3c0.6-0.1,1.5-0.4,1.6-1.1
						c0.1-0.7-0.8-0.9-1.3-0.8c-4,0.5-8.3,1.2-12.3,0.4c-4.2-0.9-8-3.3-11.6-5.5C290.3,221,287.7,222.3,289,223.1L289,223.1z"/>
				</g>
			</g>
		</g>
	</g>
</g>
</svg>
