<svg width="706" height="648" viewBox="0 0 706 648" fill="none" xmlns="http://www.w3.org/2000/svg">
<path d="M600.192 543.045C593.471 524.368 585.954 505.823 575.988 488.605C567.413 473.809 557.215 461.003 542.514 451.979C528.541 443.42 511.026 437.25 494.471 440.003C479.141 442.591 467.552 453.506 459.638 466.345C451.361 479.747 446.394 494.875 442.09 509.936C437.752 525.197 434.309 540.656 431.858 556.348C427.256 585.841 424.641 618.386 432.322 647.846C482.054 648.443 531.786 647.116 581.518 647.049C598.636 647.049 615.853 647.215 633.07 647.215C627.64 633.049 623.668 618.32 619.661 603.689C614.033 583.22 607.41 563.017 600.258 543.045H600.192Z" fill="#F5F7F4"/>
<path d="M639.899 413.024C623.564 392.578 601.364 376.897 578.236 364.888C536.587 343.318 481.916 340.572 442.618 368.891C421.578 384.076 403.852 404.19 392.387 427.448C385.661 441.078 379.564 455.039 372.871 468.702C366.111 482.531 359.584 496.79 356.403 511.942C353.189 527.292 352.527 543.106 352.726 558.721C352.891 572.418 354.283 586.18 353.752 599.877C353.421 608.776 352.56 617.675 352.494 626.575C352.494 632.43 352.526 638.815 353.852 644.77C368.265 645.796 382.679 646.524 397.125 646.987C395.038 625.02 394.21 602.92 395.634 580.854C397.258 555.38 401.731 530.204 408.192 505.524C412.798 487.791 418.331 470.191 426.151 453.583C433.705 437.505 443.977 421.526 459.152 411.667C467.27 406.407 476.978 403.463 486.355 401.445C496.362 399.261 506.7 398.368 516.905 399.393C536.288 401.312 553.916 409.45 569.058 421.427C600.668 446.437 620.582 484.318 636.685 520.444C646.526 542.511 654.876 565.206 663.623 587.735C668.295 599.777 673.298 611.588 678.666 623.366C681.98 630.677 685.392 638.12 687.778 645.862C693.643 645.531 699.541 645.134 705.406 644.638C705.074 635.805 705.505 626.906 705.836 618.072C706.366 603.383 705.604 589.025 703.65 574.469C701.728 559.945 699.077 545.521 695.233 531.395C691.423 517.367 685.823 504.134 680.389 490.67C669.455 463.508 658.355 436.083 639.899 413.024Z" fill="#F5F7F4"/>
<path d="M468.182 120.459C464.97 121.785 463.049 124.305 460.963 126.559C454.871 133.155 449.672 140.414 444.573 147.773C440.368 153.839 436.195 159.906 431.857 165.872C429.242 169.519 426.129 172.734 422.288 175.154C413.315 180.789 402.652 179.364 395.434 171.607C393.116 169.121 391.328 166.303 390.004 163.187C388.547 159.674 387.089 156.16 385.997 152.514C383.314 143.763 380.699 134.945 378.315 126.095C373.116 106.67 368.149 87.1459 362.951 67.7212C361.03 60.5944 358.745 53.5669 356.527 46.5395C355.997 44.9153 355.765 42.9927 353.646 41.9651C351.626 43.4236 350.798 45.7772 349.672 47.8324C342.52 61.0584 336.792 74.8478 331.925 89.0683C325.865 106.67 321.825 124.769 318.149 142.967C315.534 155.895 312.852 168.822 310.137 181.717C309.805 183.242 309.342 184.767 308.713 186.159C305.865 192.424 300.997 196.004 294.11 196.203C287.256 196.401 282.124 193.153 278.779 187.186C277.455 184.8 276.76 182.214 276.594 179.496C276.395 176.579 276.627 173.695 277.256 170.811C281.428 151.122 285.369 131.365 289.806 111.741C295.832 85.2562 304.838 59.7986 317.222 35.5674C320.6 29.0041 324.209 22.5734 328.514 16.5404C331.262 12.6953 334.308 9.14857 338.149 6.33099C348.116 -1.02787 360.567 -1.12751 370.6 6.13191C374.838 9.18152 378.116 13.1263 380.832 17.535C384.375 23.2696 386.991 29.4352 389.209 35.7996C392.388 44.8822 394.938 54.1635 397.421 63.445C402.487 82.6708 407.487 101.963 412.586 121.189C413.215 123.509 413.381 126.061 415.136 127.984C417.255 127.586 417.851 125.73 418.845 124.338C423.381 117.973 428.082 111.709 433.215 105.775C437.023 101.366 441.062 97.1895 445.632 93.5764C449.705 90.361 454.076 87.676 459.043 86.1181C470.135 82.6375 480.235 84.5602 489.208 91.9853C493.049 95.1344 496.095 98.9795 498.844 103.09C502.32 108.327 505.234 113.863 507.618 119.664C509.77 124.835 511.824 130.039 513.612 135.31C518.347 149.298 523.711 163.055 529.804 176.513C530.731 178.535 531.625 180.59 532.321 182.711C532.95 184.601 533.512 186.59 533.711 188.579C534.473 196.302 530.532 203.197 523.877 206.048C516.989 209.031 509.076 206.91 503.976 200.744C501.956 198.291 500.631 195.473 499.34 192.623C492.916 178.336 486.956 163.883 481.989 149C479.44 141.376 476.724 133.785 472.85 126.691C471.592 124.404 470.533 121.885 468.115 120.327L468.182 120.459Z" fill="#F5F7F4"/>
<path d="M73.9911 303.421C76.379 303.421 78.866 303.685 81.1544 302.858C82.6136 302.329 83.7079 301.139 85.134 300.51C86.1621 300.08 86.9251 299.683 87.8537 299.022C90.8716 296.971 93.3591 294.458 96.2776 292.309C97.6705 291.284 98.5328 290.291 99.6272 288.936C100.523 287.844 101.683 287.017 102.512 285.893C103.209 284.901 103.607 283.975 104.535 283.115C105.564 282.156 105.928 281.329 106.492 280.072C107.586 277.691 109.079 275.277 109.808 272.764C110.471 270.449 110.406 268.365 110.406 265.951C110.406 263.537 110.406 261.123 110.406 258.709C110.406 256.394 110.073 254.244 109.808 251.929C109.543 249.581 109.211 247.233 108.482 245.017C107.984 243.562 107.421 242.14 107.089 240.652C106.492 237.709 105.994 234.799 105.066 231.955C103.971 228.648 102.313 225.737 100.754 222.662C100.423 221.835 100.058 221.008 99.594 220.247C98.9639 219.619 98.3668 218.925 97.8362 218.23C97.0734 217.139 96.5091 215.948 95.68 214.923C94.1213 213.005 92.3971 211.55 91.0373 209.466C89.6776 207.416 88.3506 205.002 86.5266 203.381C84.0724 201.199 81.8179 198.917 79.7285 196.469C78.8663 195.444 77.8713 194.783 77.2412 193.559C76.7769 192.666 76.2788 191.873 75.7813 191.013C74.9191 189.525 74.1233 187.937 73.46 186.35C73.1284 185.556 72.6639 184.63 72.4649 183.803C72.2659 182.944 72.4656 182.216 72.3993 181.389C72.2335 179.967 71.4369 178.611 70.9063 177.289C69.5134 173.684 69.4804 170.145 69.4472 166.342C69.4472 164.292 69.9444 162.34 69.9444 160.224C69.9444 158.835 69.9444 157.413 69.9444 156.024C69.9444 152.088 70.5752 147.756 71.537 143.953C72.333 140.877 72.8632 137.537 74.4551 134.726C75.9475 132.081 77.8379 129.567 80.2921 127.715C81.8508 126.525 82.9782 124.904 84.2053 123.416C85.1007 122.325 85.4992 121.564 85.5323 120.142C85.665 116.835 84.2383 114.719 81.6183 112.834C78.1361 110.32 72.465 111.378 68.4521 111.378C64.2071 111.378 59.9958 111.279 55.7839 111.742C52.2685 112.139 48.6197 111.412 45.1042 111.974C40.8592 112.668 36.2166 112.767 32.3364 114.785C29.3847 116.306 24.609 118.323 24.0121 122.093C23.5809 124.772 24.5758 127.484 25.6371 129.931C26.3004 131.452 27.6928 132.279 28.4888 133.668C29.3179 135.057 29.6499 136.71 30.5122 138.166C31.3081 139.521 32.2698 140.91 32.8667 142.332C33.2979 143.391 33.4971 144.449 33.9614 145.474C35.0227 147.922 35.023 150.766 35.9184 153.246C36.9465 156.09 36.2828 160.058 36.2828 163.068C36.2828 166.673 36.3823 170.046 35.4537 173.518C34.4587 177.288 32.3366 180.562 30.0482 183.638C29.186 184.795 28.6886 185.887 27.6273 186.912C26.8977 187.64 26.1344 188.334 25.4379 189.062C23.6802 190.947 22.2539 192.865 20.2641 194.584C18.4069 196.205 16.9152 198.222 15.1906 200.008C13.3997 201.827 12.2057 204.274 10.9455 206.457C6.79991 213.633 4.84318 221.57 2.62116 229.507C0.365974 237.576 -0.728874 246.175 0.531375 254.542C1.45998 260.693 3.51621 266.58 5.53924 272.433C7.39645 277.725 10.4477 282.156 13.9299 286.521C14.7591 287.58 15.8206 288.439 16.7493 289.399C17.711 290.424 18.4403 291.68 19.6673 292.408C21.3919 293.4 23.2495 294.293 25.0072 295.252C26.6322 296.145 27.9253 297.468 29.6499 298.228C30.5121 298.592 31.3745 298.757 32.2036 299.154C33.0659 299.551 33.7955 300.245 34.6577 300.675C37.543 302.131 41.4234 303.486 44.6735 303.586C45.9337 303.586 47.2932 303.685 48.5203 303.487L73.958 303.586L73.9911 303.421Z" fill="#F5F7F4"/>
<path d="M368.271 303.394C360.399 341.475 323.225 410.653 274.177 378.193C258.699 367.949 247.057 342.772 243.022 325.577C241.633 319.591 237.994 302.429 241.699 296.875C250.628 283.538 265.28 305.888 272.523 315.799C274.475 306.454 282.28 262.618 292.103 261.055C300.603 259.692 312.774 293.749 315.155 300.9C318.727 293.849 322.001 263.251 335.197 263.883C343.995 264.282 350.577 294.081 352.991 301.698C356.927 289.192 357.753 273.727 368.271 265.546C377.862 276.255 369.329 301.265 368.204 303.361L368.271 303.394Z" fill="#F5F7F4"/>
<path d="M323.298 463.048C325.301 462.98 327.271 462.879 329.274 462.677C331.211 462.475 333.147 462.206 335.051 461.735C336.253 461.432 337.655 461.095 338.222 460.119C338.456 459.749 338.557 459.311 338.523 458.739C338.223 454.767 333.481 453.892 330.543 452.848C328.64 452.175 326.904 451.199 325.134 450.29C325.702 445.813 325.935 441.336 325.768 436.826C325.702 434.57 325.502 432.315 325.235 430.06C325.034 428.444 324.801 426.424 322.864 426.054C320.927 425.683 319.692 427.299 318.957 428.848C317.955 430.935 317.021 433.055 316.153 435.176C314.584 438.98 313.281 442.885 312.613 446.958C309.976 446.756 307.304 446.554 304.667 446.419C302.93 446.318 300.961 445.981 299.258 446.486C297.822 446.924 296.453 448.372 297.221 449.954C297.555 450.66 298.289 451.132 298.89 451.603C299.658 452.243 300.427 452.848 301.228 453.454C302.297 454.262 303.365 455.003 304.5 455.743C304.934 456.046 305.401 456.316 305.869 456.585C306.971 457.258 308.073 457.864 309.208 458.436C309.608 458.672 310.042 458.908 310.443 459.143C310.242 460.422 310.076 461.668 309.942 462.947C309.675 465.135 309.475 467.356 309.442 469.544C309.375 471.665 309.441 473.853 309.809 475.974C310.076 477.556 310.644 479.273 312.013 480.215C313.549 481.292 314.984 480.417 315.919 479.037C317.121 477.286 318.089 475.368 318.957 473.416C320.226 470.554 321.195 467.558 322.096 464.563C322.23 464.058 322.396 463.553 322.53 463.081C322.83 463.081 323.097 463.081 323.398 463.081L323.298 463.048Z" fill="#F5F7F4"/>
<path d="M295.218 533.967C299.057 531.548 302.83 529.063 306.505 526.412C310.079 523.827 313.588 521.043 316.766 517.961C318.785 515.973 321.135 513.786 321.201 511.201C321.201 510.24 320.937 509.246 320.209 508.186C315.144 500.763 304.784 504.541 297.866 505.833C293.397 506.661 288.829 506.794 284.294 507.026C280.322 497.681 275.689 488.635 270.293 480.052C267.579 475.744 264.666 471.536 261.587 467.46C259.337 464.511 256.622 460.832 252.385 462.356C248.215 463.848 247.586 468.421 247.884 472.265C248.282 477.467 248.844 482.67 249.572 487.806C250.83 497.019 252.717 506.131 255.961 514.814C250.532 517.431 245.104 520.115 239.709 522.866C236.2 524.655 231.93 526.213 229.183 529.162C226.866 531.647 225.774 536.021 229.084 538.242C230.54 539.203 232.559 539.302 234.247 539.6C236.464 539.965 238.682 540.296 240.9 540.528C243.879 540.86 246.891 541.125 249.903 541.257C251.128 541.324 252.32 541.357 253.544 541.39C256.424 541.456 259.304 541.39 262.184 541.224C263.243 541.224 264.335 541.224 265.394 541.158C266.454 543.842 267.546 546.526 268.704 549.177C270.69 553.75 272.776 558.257 275.192 562.631C277.509 566.839 280.09 571.048 283.169 574.759C285.486 577.543 288.564 580.227 292.338 580.492C296.574 580.79 298.362 577.476 298.66 573.732C299.024 568.927 298.759 564.056 298.23 559.284C297.435 552.259 295.979 545.333 294.324 538.441C294.059 537.314 293.761 536.154 293.496 535.027C294.059 534.696 294.622 534.364 295.185 534L295.218 533.967Z" fill="#F5F7F4"/>
</svg>
