<svg width="545" height="273" viewBox="0 0 545 273" fill="none" xmlns="http://www.w3.org/2000/svg">
<path d="M178.058 93.4276C178.058 93.4276 129.175 76.9094 86.8622 146.644C86.8622 146.644 61.6983 142.067 29.9433 200.471C-1.79135 258.875 0.0189857 271.955 0.0189857 271.955L72.256 272.647L135.644 145.729L140.16 145.485L166.015 149.736L178.058 93.4683V93.4276Z" fill="#B1996B"/>
<path d="M276.822 51.8073C276.822 51.8073 304.956 15.6177 329.652 56.9744C329.652 56.9744 366.981 55.2453 395.115 105.797C395.115 105.797 446.806 73.635 482.406 178.725C482.406 178.725 524.902 174.555 545 268.233H256.134L268.197 96.602L276.802 51.8073H276.822Z" fill="#B1996B"/>
<path d="M30.6143 269.902C30.6143 269.902 49.5737 143.106 131.616 150.002C131.616 150.002 143.048 10.7964 216.547 1.15399C290.045 -8.48846 294.968 87.9768 294.968 87.9768C294.968 87.9768 312.524 36.6114 361.021 39.9069C409.497 43.2025 445.117 156.328 445.117 156.328C445.117 156.328 504.375 155.331 515.279 269.922H30.6346L30.6143 269.902Z" fill="#E5C388"/>
<path d="M298.589 184.849L296.086 190.403L304.549 190.382L301.884 184.076L298.589 184.849Z" fill="#90532D"/>
<path d="M291.042 158.383C294.622 159.095 297.266 156.938 297.266 156.938C294.683 161.617 290.899 165.604 286.383 168.452C291.042 169.429 296.88 165.971 296.88 165.971C292.466 171.219 286.892 175.471 280.646 178.318C287.461 179.865 293.686 177.525 293.686 177.525C291.265 180.353 288.804 182.733 281.684 188.124C289.15 187.249 294.032 186.252 300.358 186.801C306.054 187.29 311.466 188.083 316.734 190.28C313.683 186.456 310.103 181.878 307.031 178.054C310.693 179.844 315.168 181.187 319.013 180.495C314.741 177.322 309.594 172.053 306.685 167.598C308.618 168.534 312.788 168.249 314.904 167.944C311.018 165.726 307.641 161.129 305.2 157.386C306.827 158.098 308.699 158.505 311.384 158.24C306.177 153.622 301.538 143.349 301.538 143.349C298.589 149.839 293.239 156.186 290.98 158.383H291.042Z" fill="#839E55"/>
<path d="M330.934 267.643C400.759 267.643 457.364 249.883 457.364 227.975C457.364 206.067 400.759 188.307 330.934 188.307C261.109 188.307 204.504 206.067 204.504 227.975C204.504 249.883 261.109 267.643 330.934 267.643Z" fill="#FBB040"/>
<path d="M235.75 67.5525C237.703 66.8812 238.782 64.0739 237.093 62.182C236.89 61.9583 236.646 61.7955 236.402 61.6327C236.503 61.3886 236.605 61.1447 236.605 60.7989C236.605 60.5548 236.544 60.3308 236.422 60.1274C236.524 59.985 236.686 59.8834 236.768 59.7206C237.073 59.0493 237.012 58.3575 236.747 57.7879C236.707 57.5438 236.625 57.3201 236.503 57.0964C236.869 56.7505 237.113 56.3437 237.276 55.8962C238.008 53.9026 236.829 51.3191 234.367 51.6039C234.123 51.4005 233.859 51.2376 233.554 51.1562C234.001 50.1797 233.838 48.9797 233.248 48.0236C233.309 47.9015 233.411 47.82 233.452 47.6573C233.533 47.2911 233.635 46.9249 233.716 46.5791C233.96 45.623 233.147 44.4431 232.048 44.7889C231.865 44.8499 231.743 44.8908 231.6 44.9518C231.458 44.9518 231.336 44.9314 231.214 44.9111C231.051 44.9111 230.868 44.9722 230.705 45.0333C230.644 44.9722 230.604 44.911 230.543 44.85C230.726 43.3243 229.973 42.002 228.895 41.7986C229.424 39.7033 229.078 37.7505 226.047 37.8319C226.006 37.8319 225.986 37.8319 225.945 37.8319C225.091 36.9571 223.748 36.6723 222.487 37.8319C221.775 38.4828 221.531 39.2152 221.612 39.8661C221.511 39.9272 221.409 40.0085 221.328 40.1102C220.941 40.0696 220.534 40.1917 220.249 40.4358C220.066 40.5782 219.903 40.7205 219.72 40.8629C219.68 40.8629 219.659 40.8629 219.619 40.8629C219.293 39.7034 218.642 38.7677 217.178 38.666C216.933 38.4219 216.608 38.2183 216.262 38.2386C213.394 38.5031 212.621 40.5985 213.231 42.2056C213.211 42.2666 213.19 42.3072 213.17 42.3682C212.804 42.5106 212.499 42.7547 212.336 43.0802C211.848 43.0395 211.36 43.2226 211.075 43.5888C209.183 41.6562 205.521 42.1038 205.663 45.6434C205.704 46.6605 206.152 47.3523 206.742 47.7998C206.742 47.8202 206.762 47.8607 206.762 47.881C206.152 48.0641 205.826 48.6134 205.806 49.183C205.786 49.2237 205.745 49.2441 205.725 49.2848C202.917 48.2067 199.805 52.9669 203.039 54.4316C202.958 54.513 202.897 54.6145 202.856 54.7162C202.694 54.7569 202.511 54.7773 202.348 54.8587C202.022 55.0011 201.839 55.2655 201.737 55.5503C200.985 55.5503 200.334 56.0385 200.273 56.8522C200.273 56.9133 200.273 56.9539 200.273 56.9945C199.683 57.4217 199.256 58.0525 199.195 58.9272C199.073 60.8191 200.537 61.4295 202.144 61.3074C201.737 62.2839 201.778 63.5044 202.348 64.2774C202.083 64.5215 201.859 64.8876 201.859 65.2334C201.859 65.5182 201.859 65.7828 201.88 66.0676C201.88 66.7185 202.246 67.227 202.856 67.4711C203.162 67.5931 203.405 67.6338 203.69 67.6948C203.609 67.8372 203.507 67.9391 203.467 68.1018C203.243 68.7935 203.344 69.4242 203.67 69.9327C203.69 70.0344 203.751 70.136 203.792 70.2377C203.06 70.8479 202.775 71.9263 203.792 73.1875C204.077 73.5333 204.504 73.6349 204.931 73.5943C205.114 74.0215 205.379 74.4282 205.704 74.7944C206.091 75.2826 206.579 75.6693 207.169 75.9337C207.556 76.0965 207.942 76.1575 208.308 76.1778H208.328C208.512 76.1778 208.695 76.1982 208.878 76.1778C209.854 76.1982 210.851 75.8726 211.583 75.0792C211.807 74.8351 211.99 74.5505 212.133 74.2657C212.356 74.6929 212.6 75.0997 212.946 75.4455C212.987 75.5065 213.028 75.5471 213.068 75.5878C213.801 76.788 215.001 77.6426 216.608 77.5205C216.73 77.5205 216.832 77.4798 216.933 77.4594C217.32 77.4594 217.707 77.4593 218.093 77.3576C218.48 77.2559 218.825 77.0728 219.11 76.8694C219.314 76.8898 219.537 76.8898 219.741 76.8694C221.104 78.2934 223.28 78.8834 224.704 77.1339C225.233 76.4829 225.416 75.6896 225.376 74.8759C225.783 75.0589 226.23 75.1403 226.678 75.0996C226.82 75.3844 227.003 75.6693 227.247 75.9337C228.631 77.3984 231.112 77.3577 232.292 75.6693C232.475 75.3845 232.597 75.0794 232.658 74.7743C232.841 74.4488 233.004 74.0826 233.045 73.6961C233.045 73.6554 233.045 73.635 233.045 73.6146C233.147 73.1264 233.146 72.6586 233.126 72.1907C233.818 72.1907 234.51 71.8652 235.059 71.0718C235.527 70.3598 235.425 69.6886 235.018 69.1801C235.018 68.7122 234.876 68.285 234.672 67.9188C234.896 67.8985 235.12 67.878 235.344 67.7966C235.506 67.7356 235.628 67.6339 235.771 67.5525H235.75Z" fill="#3D813D"/>
<path d="M219.11 49.793L220.249 99.3478L216.913 99.2256L218.541 53.2104L219.11 49.793Z" fill="#010101"/>
<path d="M227.39 51.8895L226.006 54.8595L219.008 67.5533L218.886 65.0308L227.39 51.8895Z" fill="#010101"/>
<path d="M213.19 51.829L218.581 64.055L219.253 63.1801L214.736 54.0259L213.19 51.829Z" fill="#010101"/>
<path d="M207.128 53.1708L208.837 54.3709L216.059 58.1139L215.713 56.9749L207.128 53.1708Z" fill="#010101"/>
<path d="M230.99 57.4022L228.61 58.7245L221.714 61.6538L222.141 60.5351L230.99 57.4022Z" fill="#010101"/>
<path d="M222.69 53.2723L222.548 55.1236L222.67 59.3752L223.484 58.7851L222.69 53.2723Z" fill="#010101"/>
<path d="M210.77 61.4296L211.868 62.996L218.724 69.6481L218.927 68.0409L210.77 61.4296Z" fill="#010101"/>
<path d="M220.432 90.0698C220.31 89.5408 219.618 88.2797 219.273 87.8932C219.008 87.5677 218.703 87.2828 218.357 87.0591C218.459 86.7336 218.439 86.3674 218.194 86.0623C217.279 85.0248 216.282 85.0451 215.631 85.513C215.55 85.4723 215.469 85.4114 215.387 85.3707C214.98 85.0249 214.472 84.8215 213.821 84.8825C213.678 84.8825 213.556 84.9637 213.414 84.9841C213.414 84.7603 213.414 84.5366 213.353 84.2925C213.251 83.7636 212.885 83.3974 212.315 83.255C212.071 83.194 211.848 83.133 211.603 83.0923C211.319 83.0313 210.973 83.133 210.688 83.2957C210.119 82.6854 209.061 82.421 208.145 82.5838C208.532 81.3429 208.267 80.041 206.599 79.7968C205.847 79.6951 205.216 79.9189 204.728 80.3054C204.687 80.3054 204.646 80.285 204.606 80.285C203.873 80.1833 203.324 80.6104 203.222 81.2207C202.958 81.2411 202.693 81.3429 202.51 81.587C202.409 81.7091 202.368 81.8513 202.287 81.9734C202.185 81.9937 202.103 82.0345 202.002 82.0752C201.29 79.2272 196.611 80.8342 197.058 83.2754C197.018 83.2754 196.997 83.3161 196.957 83.3365C196.448 83.2347 195.919 83.3975 195.655 83.8654C195.634 83.8654 195.614 83.8247 195.594 83.8247C195.309 83.2754 194.78 82.7668 193.905 82.5634C190.854 81.8107 189.837 84.6382 191.179 86.4894C190.813 86.6522 190.549 87.0185 190.508 87.405C190.203 87.4864 189.918 87.6695 189.735 87.9339C189.694 87.9339 189.633 87.9339 189.593 87.9339C188.311 87.1609 186.358 87.3846 185.626 89.6223C185.524 89.9071 185.646 90.1919 185.829 90.436C185.666 91.6363 186.358 92.3076 187.314 92.7959C187.314 92.8162 187.294 92.8567 187.274 92.8771C187.111 92.9991 186.969 93.1009 186.806 93.223C186.541 93.4061 186.378 93.7113 186.338 94.0367C186.236 94.0978 186.155 94.1587 186.073 94.2198C185.504 94.057 184.832 94.1181 184.141 94.5453C182.9 95.3387 182.92 96.4575 183.531 97.3119C183.531 97.3322 183.51 97.3526 183.51 97.3933C182.9 99.7938 184.548 100.445 186.46 100.404C186.46 101.299 187.477 102.153 188.82 102.275C188.86 102.336 188.901 102.398 188.962 102.438C188.881 102.56 188.779 102.682 188.779 102.825C188.779 102.926 188.759 103.049 188.738 103.15C188.657 103.252 188.596 103.354 188.514 103.476C188.026 104.289 188.921 105.144 189.796 105.144C190.122 105.144 190.447 105.144 190.793 105.144C190.935 105.144 192.054 106.263 192.176 106.242C192.176 106.242 209.264 104.818 215.916 105.286C219.822 105.571 220.981 102.092 219.964 100.75C220.025 100.587 220.066 100.404 220.066 100.241C220.31 100.038 220.513 99.8139 220.676 99.5088C220.839 99.2037 220.92 98.8986 220.981 98.5935C221.022 98.5121 221.063 98.4308 221.083 98.3494C221.47 97.1085 219.557 95.8269 218.642 95.0335C218.601 94.9928 218.561 94.952 218.54 94.9113C218.296 94.5859 217.971 94.3012 217.645 94.0571C217.91 93.9961 218.194 93.9147 218.439 93.7723C219.252 93.3247 220.168 92.3685 220.331 91.5751C220.371 91.4327 220.391 91.2904 220.432 91.148L220.005 90.3342C220.046 90.0291 220.493 90.4971 220.412 90.1716L220.432 90.0698Z" fill="#94B43D"/>
<path d="M141.91 192.476C141.828 192.09 141.34 191.195 141.096 190.93C140.913 190.706 140.689 190.483 140.445 190.34C140.526 190.096 140.506 189.852 140.323 189.628C139.672 188.876 138.96 188.896 138.492 189.242C138.431 189.201 138.39 189.16 138.329 189.14C138.045 188.896 137.679 188.753 137.211 188.794C137.109 188.794 137.028 188.855 136.926 188.876C136.926 188.713 136.926 188.55 136.885 188.367C136.804 187.98 136.539 187.716 136.132 187.635C135.97 187.594 135.787 187.553 135.624 187.512C135.42 187.472 135.176 187.533 134.973 187.655C134.566 187.228 133.813 187.045 133.163 187.146C133.427 186.251 133.244 185.336 132.064 185.153C131.535 185.071 131.087 185.234 130.742 185.519C130.701 185.519 130.681 185.519 130.64 185.499C130.131 185.438 129.724 185.722 129.643 186.17C129.44 186.17 129.257 186.251 129.134 186.434C129.073 186.516 129.033 186.617 128.992 186.699C128.931 186.699 128.85 186.739 128.789 186.78C128.28 184.746 124.944 185.906 125.27 187.635C125.249 187.635 125.229 187.655 125.188 187.675C124.822 187.614 124.456 187.716 124.252 188.041C124.252 188.041 124.232 188.021 124.212 188.021C124.008 187.614 123.622 187.268 123.012 187.126C120.835 186.577 120.102 188.611 121.079 189.933C120.814 190.055 120.631 190.299 120.611 190.584C120.387 190.645 120.184 190.767 120.062 190.971C120.021 190.971 120.001 190.971 119.96 190.971C119.045 190.422 117.661 190.564 117.132 192.171C117.071 192.374 117.132 192.578 117.275 192.741C117.173 193.595 117.661 194.083 118.333 194.409C118.333 194.409 118.333 194.449 118.312 194.47C118.211 194.551 118.088 194.633 117.987 194.714C117.804 194.856 117.682 195.06 117.661 195.284C117.6 195.324 117.539 195.365 117.478 195.405C117.071 195.283 116.604 195.324 116.115 195.65C115.241 196.199 115.24 197.012 115.688 197.623C115.688 197.623 115.688 197.663 115.668 197.684C115.24 199.393 116.4 199.861 117.783 199.82C117.783 200.451 118.516 201.061 119.472 201.163C119.492 201.203 119.533 201.244 119.573 201.285C119.512 201.366 119.452 201.468 119.431 201.569C119.431 201.651 119.431 201.732 119.411 201.793C119.35 201.874 119.309 201.935 119.248 202.017C118.902 202.586 119.533 203.197 120.163 203.197C120.408 203.197 120.631 203.197 120.875 203.197C120.977 203.197 121.77 203.99 121.852 203.97C121.852 203.97 134.017 202.953 138.757 203.298C141.523 203.502 142.357 201.02 141.645 200.064C141.686 199.942 141.706 199.82 141.727 199.698C141.889 199.555 142.052 199.393 142.154 199.189C142.276 198.986 142.337 198.762 142.357 198.538C142.378 198.477 142.418 198.416 142.439 198.355C142.703 197.46 141.361 196.565 140.71 195.995C140.689 195.975 140.669 195.934 140.628 195.894C140.445 195.67 140.221 195.467 139.998 195.284C140.201 195.243 140.384 195.182 140.567 195.08C141.137 194.754 141.808 194.083 141.91 193.514C141.95 193.412 141.95 193.31 141.971 193.209C141.971 193.209 141.666 192.639 141.666 192.619C141.706 192.395 142.011 192.741 141.95 192.497L141.91 192.476Z" fill="#94B43D"/>
<path d="M431.569 207.696L428.762 201.084C428.253 199.884 427.073 199.091 425.751 199.091H361.468C360.166 199.091 358.966 199.884 358.457 201.084L355.65 207.696C354.734 209.852 356.321 212.232 358.66 212.232H428.558C430.898 212.232 432.484 209.852 431.569 207.696Z" fill="#3D813D"/>
<path d="M425.425 196.242L423.045 190.648C422.618 189.631 421.621 188.96 420.503 188.96H366.127C365.008 188.96 364.011 189.631 363.584 190.648L361.203 196.242C360.43 198.053 361.773 200.087 363.746 200.087H422.862C424.835 200.087 426.178 198.073 425.405 196.242H425.425Z" fill="#94B43D"/>
<path d="M420.217 186.294L418.224 181.574C417.858 180.72 417.024 180.15 416.088 180.15H370.317C369.381 180.15 368.547 180.7 368.181 181.574L366.188 186.294C365.537 187.82 366.655 189.528 368.323 189.528H418.102C419.77 189.528 420.889 187.82 420.238 186.294H420.217Z" fill="#3D813D"/>
<path d="M410.413 171.404H376.033C375.118 171.404 374.264 171.913 373.837 172.706L370.968 178.016C370.236 179.155 371.049 180.66 372.392 180.66H414.054C415.417 180.66 416.231 179.155 415.478 178.016L412.589 172.686C412.142 171.872 411.308 171.384 410.392 171.384L410.413 171.404Z" fill="#94B43D"/>
<path d="M408.561 167.436C401.217 156.125 384.679 156.125 377.335 167.436L376.074 169.369C375.28 170.589 376.155 172.176 377.599 172.176H408.297C409.741 172.176 410.616 170.569 409.823 169.369L408.561 167.436Z" fill="#3D813D"/>
<path d="M388.381 217.559L384.659 208.792C383.987 207.205 382.421 206.167 380.672 206.167H295.578C293.849 206.167 292.283 207.205 291.591 208.792L287.868 217.559C286.668 220.407 288.743 223.58 291.855 223.58H384.394C387.486 223.58 389.582 220.427 388.381 217.559Z" fill="#94B43D"/>
<path d="M380.265 202.404L377.112 194.999C376.542 193.656 375.22 192.781 373.735 192.781H301.742C300.278 192.781 298.955 193.656 298.386 194.999L295.233 202.404C294.215 204.824 295.985 207.489 298.589 207.489H376.868C379.492 207.489 381.262 204.824 380.245 202.404H380.265Z" fill="#3D813D"/>
<path d="M373.368 189.22L370.724 182.975C370.236 181.836 369.117 181.104 367.896 181.104H307.295C306.055 181.104 304.936 181.836 304.468 182.975L301.823 189.22C300.969 191.255 302.454 193.493 304.651 193.493H370.541C372.738 193.493 374.243 191.234 373.368 189.22Z" fill="#94B43D"/>
<path d="M360.39 169.508H314.863C313.643 169.508 312.524 170.179 311.954 171.237L308.17 178.276C307.194 179.781 308.272 181.775 310.062 181.775H365.231C367.022 181.775 368.1 179.781 367.124 178.276L363.279 171.237C362.709 170.179 361.59 169.508 360.37 169.508H360.39Z" fill="#3D813D"/>
<path d="M357.908 164.261C348.184 149.288 326.275 149.288 316.551 164.261L314.883 166.824C313.846 168.431 314.985 170.546 316.897 170.546H357.542C359.454 170.546 360.614 168.431 359.556 166.824L357.888 164.261H357.908Z" fill="#94B43D"/>
<path d="M240.999 228.768C240.897 228.097 240.104 226.469 239.697 225.94C239.392 225.513 239.025 225.127 238.598 224.822C238.761 224.415 238.761 223.947 238.456 223.56C237.378 222.177 236.137 222.157 235.262 222.706C235.16 222.645 235.079 222.564 234.977 222.503C234.509 222.035 233.858 221.75 233.045 221.77C232.862 221.77 232.719 221.852 232.536 221.892C232.536 221.608 232.536 221.343 232.516 221.017C232.414 220.346 231.987 219.858 231.275 219.634C230.97 219.553 230.685 219.451 230.38 219.37C230.013 219.268 229.566 219.37 229.22 219.573C228.529 218.78 227.226 218.373 226.067 218.515C226.637 216.969 226.372 215.322 224.297 214.915C223.361 214.732 222.548 214.976 221.917 215.423C221.856 215.423 221.815 215.383 221.754 215.383C220.839 215.22 220.127 215.708 219.944 216.461C219.598 216.461 219.273 216.583 219.028 216.868C218.906 217.01 218.825 217.173 218.744 217.336C218.622 217.356 218.499 217.397 218.398 217.437C217.686 213.816 211.705 215.525 212.112 218.617C212.071 218.617 212.031 218.658 211.97 218.678C211.339 218.516 210.668 218.678 210.301 219.248C210.281 219.248 210.261 219.207 210.22 219.187C209.895 218.475 209.264 217.824 208.166 217.478C204.382 216.318 202.917 219.817 204.483 222.238C203.995 222.421 203.67 222.869 203.588 223.357C203.182 223.438 202.836 223.662 202.571 223.988C202.51 223.988 202.449 223.988 202.388 223.988C200.822 222.93 198.36 223.072 197.282 225.859C197.14 226.205 197.282 226.571 197.486 226.897C197.221 228.382 198.035 229.297 199.215 229.948C199.215 229.989 199.194 230.009 199.174 230.05C198.971 230.172 198.767 230.314 198.564 230.436C198.218 230.66 197.994 231.026 197.913 231.413C197.791 231.474 197.689 231.535 197.587 231.637C196.896 231.392 196.041 231.413 195.146 231.921C193.539 232.837 193.478 234.261 194.21 235.339C194.21 235.38 194.17 235.4 194.17 235.441C193.254 238.431 195.289 239.346 197.689 239.407C197.608 240.526 198.849 241.665 200.537 241.93C200.578 242.011 200.639 242.072 200.7 242.154C200.598 242.296 200.456 242.438 200.435 242.621C200.415 242.764 200.394 242.886 200.374 243.028C200.272 243.15 200.191 243.272 200.069 243.435C199.398 244.432 200.456 245.551 201.554 245.612C201.961 245.612 202.388 245.653 202.795 245.653C202.978 245.653 204.321 247.158 204.463 247.117C204.463 247.117 226.026 246.426 234.367 247.463C239.249 248.073 240.937 243.781 239.758 242.032C239.839 241.828 239.9 241.625 239.92 241.401C240.226 241.157 240.51 240.892 240.714 240.526C240.938 240.16 241.06 239.794 241.141 239.407C241.182 239.306 241.243 239.204 241.283 239.102C241.833 237.556 239.534 235.847 238.435 234.769C238.395 234.708 238.354 234.647 238.313 234.607C238.008 234.179 237.642 233.813 237.255 233.467C237.601 233.406 237.947 233.325 238.273 233.162C239.33 232.654 240.551 231.494 240.775 230.518C240.836 230.355 240.877 230.172 240.917 229.989L240.449 228.931C240.531 228.544 241.039 229.175 240.978 228.748L240.999 228.768Z" fill="#3D813D"/>
<path d="M370.012 120.484L367.49 126.037H375.972L373.308 119.711L370.012 120.484Z" fill="#90532D"/>
<path d="M362.465 94.039C366.045 94.751 368.69 92.5945 368.69 92.5945C366.107 97.2734 362.323 101.261 357.807 104.109C362.465 105.085 368.303 101.627 368.303 101.627C363.889 106.875 358.315 111.127 352.07 113.975C358.885 115.521 365.11 113.182 365.11 113.182C362.689 116.009 360.227 118.389 353.107 123.78C360.573 122.905 365.456 121.908 371.782 122.458C377.478 122.946 382.889 123.739 388.158 125.936C385.106 122.112 381.526 117.535 378.454 113.71C382.116 115.5 386.592 116.843 390.436 116.152C386.164 112.978 381.018 107.709 378.109 103.254C380.041 104.19 384.211 103.905 386.327 103.6C382.442 101.383 379.065 96.7853 376.624 93.0423C378.251 93.7543 380.123 94.1609 382.808 93.8965C377.6 89.2787 372.962 79.0057 372.962 79.0057C370.012 85.4951 364.662 91.842 362.404 94.039H362.465Z" fill="#839E55"/>
<path d="M368.914 116.355C368.812 115.683 368.019 114.056 367.612 113.527C367.307 113.1 366.941 112.713 366.513 112.408C366.676 112.001 366.676 111.534 366.371 111.147C365.293 109.764 364.052 109.743 363.177 110.293C363.076 110.232 362.994 110.15 362.892 110.089C362.424 109.621 361.774 109.337 360.96 109.357C360.777 109.357 360.634 109.438 360.451 109.479C360.451 109.194 360.451 108.93 360.431 108.584C360.329 107.913 359.902 107.424 359.19 107.2C358.885 107.119 358.6 107.017 358.295 106.936C357.929 106.834 357.481 106.936 357.135 107.139C356.444 106.346 355.142 105.939 353.983 106.082C354.552 104.535 354.287 102.888 352.212 102.481C351.277 102.298 350.463 102.542 349.833 102.99C349.771 102.99 349.731 102.949 349.67 102.949C348.754 102.786 348.042 103.274 347.859 104.027C347.513 104.027 347.188 104.149 346.944 104.434C346.821 104.576 346.74 104.739 346.659 104.902C346.537 104.922 346.415 104.963 346.313 105.004C345.601 101.383 339.62 103.091 340.027 106.183C339.986 106.183 339.946 106.224 339.885 106.244C339.254 106.082 338.583 106.244 338.217 106.814C338.197 106.814 338.176 106.773 338.135 106.753C337.81 106.041 337.179 105.39 336.081 105.044C332.297 103.885 330.832 107.384 332.399 109.804C331.91 109.987 331.585 110.435 331.504 110.923C331.097 111.004 330.751 111.228 330.487 111.554C330.426 111.554 330.364 111.554 330.303 111.554C328.737 110.496 326.275 110.638 325.197 113.425C325.055 113.771 325.197 114.137 325.401 114.463C325.136 115.948 325.95 116.863 327.13 117.514C327.13 117.555 327.109 117.575 327.089 117.616C326.886 117.738 326.683 117.881 326.479 118.003C326.133 118.226 325.909 118.592 325.828 118.979C325.706 119.04 325.604 119.101 325.503 119.203C324.811 118.959 323.956 118.979 323.061 119.488C321.454 120.403 321.393 121.827 322.125 122.905C322.125 122.946 322.085 122.966 322.085 123.007C321.17 125.997 323.204 126.912 325.604 126.974C325.523 128.092 326.764 129.232 328.452 129.496C328.493 129.577 328.554 129.638 328.615 129.72C328.513 129.862 328.371 130.005 328.35 130.188C328.35 130.33 328.31 130.452 328.289 130.595C328.188 130.717 328.107 130.839 327.984 131.001C327.313 131.998 328.371 133.117 329.469 133.178C329.876 133.178 330.303 133.219 330.71 133.219C330.893 133.219 332.236 134.724 332.378 134.683C332.378 134.683 353.941 133.992 362.282 135.029C367.164 135.64 368.853 131.347 367.673 129.598C367.754 129.394 367.815 129.191 367.836 128.967C368.141 128.723 368.426 128.459 368.629 128.092C368.853 127.726 368.975 127.36 369.056 126.974C369.097 126.872 369.158 126.77 369.199 126.668C369.748 125.122 367.449 123.414 366.351 122.336C366.31 122.275 366.27 122.213 366.229 122.173C365.924 121.745 365.558 121.379 365.171 121.034C365.517 120.973 365.863 120.891 366.188 120.728C367.246 120.22 368.466 119.06 368.69 118.084C368.751 117.921 368.792 117.738 368.832 117.555L368.364 116.497C368.446 116.11 368.954 116.741 368.893 116.314L368.914 116.355Z" fill="#3D813D"/>
<path d="M204.036 101.504C204.077 101.239 204.382 100.609 204.545 100.406C204.667 100.243 204.809 100.08 204.972 99.9782C204.911 99.8155 204.911 99.6324 205.033 99.49C205.46 98.9611 205.948 98.9409 206.274 99.1444C206.314 99.124 206.355 99.0833 206.396 99.0629C206.579 98.8798 206.843 98.7578 207.149 98.7781C207.23 98.7781 207.271 98.8188 207.352 98.8188C207.352 98.7171 207.352 98.595 207.352 98.4729C207.393 98.2084 207.555 98.0253 207.84 97.944C207.962 97.9033 208.064 97.8831 208.186 97.8424C208.329 97.8017 208.512 97.8425 208.634 97.9239C208.898 97.6187 209.407 97.4558 209.874 97.5169C209.651 96.9066 209.752 96.2761 210.566 96.1133C210.932 96.032 211.258 96.1336 211.502 96.3167C211.522 96.3167 211.542 96.3167 211.563 96.3167C211.909 96.2557 212.193 96.4387 212.275 96.7438C212.417 96.7438 212.539 96.7847 212.641 96.9067C212.682 96.9677 212.723 97.0287 212.763 97.0897C212.804 97.0897 212.865 97.1101 212.906 97.1305C213.19 95.7065 215.53 96.3777 215.367 97.5983C215.367 97.5983 215.408 97.5983 215.428 97.6187C215.672 97.5576 215.937 97.6186 216.079 97.8424C216.079 97.8424 216.079 97.8424 216.12 97.822C216.242 97.5372 216.506 97.2932 216.913 97.1508C218.398 96.7033 218.968 98.0661 218.357 99.0222C218.541 99.1036 218.683 99.2665 218.703 99.4496C218.866 99.4902 219.008 99.5716 219.09 99.6937C219.11 99.6937 219.13 99.6937 219.171 99.6937C219.781 99.2868 220.738 99.3478 221.165 100.426C221.226 100.568 221.165 100.711 221.083 100.833C221.185 101.423 220.859 101.768 220.412 102.033C220.412 102.033 220.412 102.053 220.412 102.074C220.493 102.135 220.575 102.175 220.656 102.237C220.799 102.318 220.88 102.46 220.9 102.623C220.941 102.643 220.982 102.684 221.022 102.704C221.287 102.603 221.632 102.623 221.978 102.826C222.609 103.172 222.629 103.742 222.345 104.169C222.345 104.169 222.345 104.189 222.345 104.21C222.711 105.369 221.917 105.735 220.961 105.756C220.981 106.203 220.514 106.63 219.842 106.732C219.842 106.773 219.802 106.793 219.781 106.814C219.822 106.875 219.863 106.936 219.883 106.997C219.883 107.058 219.883 107.098 219.903 107.159C219.944 107.2 219.985 107.261 220.025 107.322C220.29 107.709 219.863 108.156 219.435 108.176C219.273 108.176 219.11 108.176 218.947 108.176C218.886 108.176 218.357 108.766 218.296 108.746C218.296 108.746 209.854 108.481 206.599 108.868C204.687 109.112 204.036 107.424 204.484 106.732C204.443 106.651 204.423 106.569 204.423 106.488C204.3 106.386 204.199 106.285 204.118 106.142C204.036 106 203.975 105.857 203.955 105.695C203.955 105.654 203.914 105.613 203.894 105.572C203.67 104.962 204.585 104.291 205.013 103.884C205.013 103.864 205.053 103.843 205.053 103.823C205.175 103.66 205.318 103.518 205.46 103.376C205.318 103.355 205.196 103.315 205.053 103.254C204.646 103.05 204.158 102.603 204.077 102.216C204.057 102.155 204.036 102.074 204.016 102.013L204.199 101.606C204.158 101.463 203.975 101.707 203.995 101.545L204.036 101.504Z" fill="#3D813D"/>
</svg>
