<svg width="284" height="195" viewBox="0 0 284 195" fill="none" xmlns="http://www.w3.org/2000/svg">
<path d="M11 133.5C11 133.5 23.3563 60.1607 68.3837 64.0944C68.3837 64.0944 86.8396 0.5 117.699 0.5C144.212 0.5 158.037 28.7138 158.037 28.7138C158.037 28.7138 168.117 13.1575 190.719 17.226C224.186 21.7466 243.5 69.5 243.5 69.5C243.5 69.5 278.016 129.635 284 195H0.5L6.5 160.5L11 133.5Z" fill="#E5C388"/>
<path d="M88.4989 84.6276C88.5711 84.2788 89.0038 83.471 89.2201 83.2324C89.3824 83.0304 89.5806 82.8284 89.797 82.6999C89.7249 82.4796 89.743 82.2594 89.9053 82.0575C90.4822 81.3782 91.113 81.3965 91.5277 81.7085C91.5818 81.6718 91.618 81.6352 91.672 81.6169C91.9245 81.3966 92.2488 81.268 92.6635 81.3047C92.7537 81.3047 92.8258 81.3599 92.9159 81.3782C92.9159 81.2314 92.916 81.0845 92.952 80.9193C93.0241 80.5705 93.2585 80.3319 93.6191 80.2584C93.7633 80.2217 93.9256 80.1849 94.0698 80.1482C94.2501 80.1115 94.4666 80.1667 94.6469 80.2768C95.0074 79.8913 95.6743 79.7261 96.2512 79.8179C96.0169 79.0101 96.1792 78.1839 97.2249 78.0187C97.6936 77.9452 98.0903 78.0922 98.3968 78.3492C98.4329 78.3492 98.4508 78.3492 98.4868 78.3308C98.9375 78.2757 99.2983 78.5327 99.3704 78.9365C99.5507 78.9365 99.713 79.01 99.8212 79.1752C99.8752 79.2486 99.9112 79.3404 99.9473 79.4138C100.001 79.4138 100.073 79.4506 100.128 79.4873C100.578 77.6516 103.535 78.6981 103.246 80.2584C103.264 80.2584 103.283 80.2768 103.319 80.2952C103.643 80.2401 103.968 80.3318 104.148 80.6255C104.148 80.6255 104.166 80.6071 104.184 80.6071C104.364 80.24 104.707 79.928 105.248 79.7995C107.177 79.3039 107.826 81.1396 106.961 82.3329C107.195 82.443 107.357 82.6632 107.375 82.9202C107.573 82.9753 107.754 83.0855 107.862 83.2691C107.898 83.2691 107.916 83.2691 107.952 83.2691C108.763 82.7735 109.989 82.9019 110.458 84.3521C110.512 84.5357 110.458 84.7194 110.332 84.8662C110.422 85.6372 109.989 86.0777 109.394 86.3714C109.394 86.3714 109.394 86.4082 109.412 86.4266C109.503 86.5 109.611 86.5734 109.701 86.6468C109.863 86.7753 109.971 86.959 109.989 87.1609C110.043 87.1976 110.098 87.2342 110.152 87.2709C110.512 87.1608 110.927 87.1975 111.359 87.4912C112.135 87.9869 112.135 88.7211 111.738 89.2719C111.738 89.2719 111.738 89.3086 111.756 89.327C112.135 90.869 111.107 91.2913 109.881 91.2546C109.881 91.8237 109.232 92.3745 108.385 92.4663C108.367 92.503 108.331 92.5396 108.295 92.5763C108.349 92.6497 108.403 92.7416 108.421 92.8333C108.421 92.9068 108.421 92.9802 108.439 93.0352C108.493 93.1087 108.529 93.1637 108.583 93.2372C108.89 93.7512 108.331 94.302 107.772 94.302C107.555 94.302 107.357 94.302 107.141 94.302C107.051 94.302 106.348 95.0178 106.275 94.9994C106.275 94.9994 95.494 94.0816 91.2933 94.3937C88.8414 94.5773 88.1023 92.3377 88.7333 91.4749C88.6973 91.3648 88.6792 91.2545 88.6611 91.1444C88.5169 91.0159 88.3728 90.869 88.2826 90.6854C88.1744 90.5018 88.1204 90.3 88.1024 90.0981C88.0843 90.043 88.0482 89.988 88.0302 89.9329C87.7958 89.1252 88.9857 88.3174 89.5626 87.8034C89.5806 87.785 89.5987 87.7482 89.6348 87.7115C89.797 87.5096 89.9952 87.3261 90.1936 87.1609C90.0133 87.1242 89.8512 87.0689 89.6889 86.9772C89.1841 86.6834 88.5891 86.0778 88.4989 85.5638C88.4629 85.472 88.4628 85.3802 88.4448 85.2884C88.4448 85.2884 88.7153 84.7743 88.7153 84.756C88.6792 84.554 88.4088 84.8662 88.4629 84.6459L88.4989 84.6276Z" fill="#3D813D"/>
<path d="M43.3247 52.3521C43.4145 51.7562 44.1144 50.3115 44.4734 49.842C44.7426 49.4627 45.0657 49.1195 45.4426 48.8487C45.299 48.4875 45.2989 48.0722 45.5681 47.729C46.5193 46.5011 47.6142 46.4832 48.3859 46.9707C48.4757 46.9166 48.5475 46.8444 48.6372 46.7902C49.05 46.3749 49.6242 46.1218 50.3421 46.1399C50.5036 46.1399 50.6292 46.2122 50.7908 46.2484C50.7908 45.9955 50.7908 45.7607 50.8087 45.4718C50.8985 44.8758 51.2753 44.4426 51.9035 44.2439C52.1727 44.1717 52.424 44.0814 52.6932 44.0091C53.0163 43.9189 53.411 44.0091 53.7161 44.1897C54.3263 43.4854 55.475 43.1242 56.498 43.2506C55.9955 41.8782 56.2288 40.4154 58.0594 40.0543C58.8849 39.8917 59.6027 40.1084 60.159 40.5057C60.2129 40.5057 60.2489 40.4698 60.3027 40.4698C61.1104 40.3253 61.7385 40.7586 61.9001 41.4267C62.2052 41.4267 62.4922 41.5352 62.7076 41.788C62.8153 41.9144 62.8871 42.0588 62.9589 42.2033C63.0665 42.2214 63.1743 42.2576 63.264 42.2937C63.8922 39.0793 69.1685 40.5961 68.8096 43.341C68.8455 43.341 68.8813 43.3772 68.9351 43.3952C69.4915 43.2508 70.0839 43.3951 70.4069 43.9007C70.4249 43.9007 70.4427 43.8647 70.4785 43.8467C70.7657 43.2146 71.3221 42.6366 72.2912 42.3296C75.6294 41.3003 76.9216 44.4065 75.5397 46.5554C75.9704 46.718 76.2575 47.1151 76.3293 47.5485C76.6882 47.6207 76.9933 47.8195 77.2266 48.1084C77.2805 48.1084 77.3345 48.1084 77.3883 48.1084C78.7702 47.1694 80.9418 47.2957 81.893 49.7696C82.0187 50.0766 81.8928 50.4017 81.7134 50.6906C81.9467 52.0089 81.2289 52.8215 80.1879 53.3994C80.1879 53.4355 80.2059 53.4537 80.2239 53.4898C80.4033 53.5981 80.5829 53.7244 80.7624 53.8328C81.0675 54.0314 81.2648 54.3566 81.3366 54.6998C81.4442 54.7539 81.534 54.8081 81.6238 54.8984C82.234 54.6817 82.9877 54.6998 83.7773 55.1512C85.1951 55.9638 85.2489 57.2278 84.6028 58.1849C84.6028 58.221 84.6387 58.2392 84.6387 58.2753C85.4464 60.9298 83.6517 61.7424 81.534 61.7966C81.6057 62.7898 80.5109 63.801 79.0213 64.0358C78.9854 64.108 78.9317 64.1622 78.8778 64.2344C78.9676 64.3608 79.0932 64.4872 79.1112 64.6497C79.1291 64.7761 79.1471 64.8846 79.165 65.011C79.2548 65.1193 79.3266 65.2276 79.4343 65.3721C80.0265 66.2569 79.0931 67.2503 78.124 67.3044C77.765 67.3044 77.3882 67.3406 77.0292 67.3406C76.8677 67.3406 75.6833 68.6768 75.5577 68.6407C75.5577 68.6407 56.5337 68.0266 49.1755 68.9476C44.8682 69.4893 43.3788 65.6792 44.4197 64.1261C44.3479 63.9456 44.2939 63.7649 44.276 63.5662C44.0068 63.3495 43.7555 63.1149 43.576 62.7899C43.3786 62.4648 43.271 62.1397 43.1992 61.7966C43.1633 61.7063 43.1096 61.6159 43.0737 61.5256C42.5891 60.1532 44.6169 58.6363 45.5861 57.6792C45.622 57.625 45.658 57.5709 45.6939 57.5348C45.9631 57.1556 46.2862 56.8304 46.6272 56.5234C46.3221 56.4693 46.017 56.3972 45.7298 56.2527C44.7966 55.8013 43.7198 54.7719 43.5224 53.9051C43.4685 53.7606 43.4325 53.5981 43.3966 53.4355L43.8094 52.4965C43.7376 52.1534 43.2889 52.7132 43.3427 52.334L43.3247 52.3521Z" fill="#94B43D"/>
</svg>
